<?xml version="1.0" encoding="utf-8"?>
<!-- Generator: Adobe Illustrator 24.1.3, SVG Export Plug-In . SVG Version: 6.00 Build 0)  -->
<svg version="1.1" id="Laag_1" focusable="false" xmlns="http://www.w3.org/2000/svg" xmlns:xlink="http://www.w3.org/1999/xlink"
	 x="0px" y="0px" viewBox="0 0 569.4 517.3" style="enable-background:new 0 0 569.4 517.3;" xml:space="preserve">
<style type="text/css">
	.st0{enable-background:new    ;}
	.st1{fill:#1B1464;}
	.st2{fill:#FFFFFF;}
	.st3{fill:#C1272D;}
</style>
<g>
	<g class="st0">
		<g>
			<path class="st1" d="M231.7,125.8L21.6,262.2c-28.9,18.9-28.8,52.2,0.2,74.6l210.7,161.8c29.1,22.3,76.1,25.1,105.2,6.3
				l210.1-136.4c28.9-18.9,28.8-52.2-0.2-74.6L336.9,132.1C307.7,109.9,260.7,107,231.7,125.8"/>
		</g>
	</g>
</g>
<g>
	<g class="st0">
		<g>
			<path class="st2" d="M231.7,69.1L21.6,205.5c-28.9,18.9-28.8,52.2,0.2,74.6l210.7,161.8c29.1,22.3,76.1,25.1,105.2,6.3
				l210.1-136.4c28.9-18.9,28.8-52.2-0.2-74.6L336.9,75.4C307.7,53.2,260.7,50.3,231.7,69.1"/>
		</g>
	</g>
</g>
<path class="st2" d="M371.3,280.6c-14.9,9.7-35.3,22.7-63.5,41.1L123.4,180.1l89.3-58c56-36.4,95.3-4.1,100.3-0.3
	c19.3,14.8,22.2,31.4,13,47.2l0.5,0.4c36.2-14.5,66.8,2.4,82,14.1c34.7,26.6,17.2,51.6,10.3,60.4C411,254,404.1,259.3,371.3,280.6"
	/>
<g>
	<g class="st0">
		<g>
			<path class="st3" d="M234.4,145.3l-52.5,34.1l50.9,39.1l52.5-34.1c0,0,0.1-0.1,0.3-0.2c2.8-1.9,26.1-17.9,1.1-37.1
				C275.8,138.7,259,129.3,234.4,145.3 M312.9,199.3L256,236.3l57.6,44.3l56.9-36.9c0.1-0.1,0.3-0.2,0.5-0.3
				c4.8-3.1,29.7-20.2,1.1-42.2C366.3,196.5,342.8,179.9,312.9,199.3 M371.3,280.6c-14.9,9.7-35.3,22.7-63.5,41.1L123.4,180.1
				l89.3-58c56-36.4,95.3-4.1,100.3-0.3c19.3,14.8,22.2,31.4,13,47.2l0.5,0.4c36.2-14.5,66.8,2.4,82,14.1
				c34.7,26.6,17.2,51.6,10.3,60.4C411,254,404.1,259.3,371.3,280.6 M231.7,12.4L21.6,148.8c-28.9,18.9-28.8,52.2,0.2,74.6
				l210.7,161.8c29.1,22.3,76.1,25.1,105.2,6.3l210.1-136.4c28.9-18.9,28.8-52.2-0.2-74.6L336.9,18.7
				C307.7-3.5,260.7-6.4,231.7,12.4"/>
		</g>
	</g>
</g>
</svg>
