<?xml version="1.0" encoding="utf-8"?>
<!-- Generator: Adobe Illustrator 24.1.3, SVG Export Plug-In . SVG Version: 6.00 Build 0)  -->
<svg version="1.1" id="Laag_1" xmlns="http://www.w3.org/2000/svg" xmlns:xlink="http://www.w3.org/1999/xlink" x="0px" y="0px"
	 viewBox="0 0 777.5 470.5" style="enable-background:new 0 0 777.5 470.5;" xml:space="preserve">
<style type="text/css">
	.st0{fill:#488BB7;}
	.st1{fill:#743064;}
	.st2{fill:#313131;}
	.st3{fill:#575A5F;}
	.st4{fill:#0C2227;}
	.st5{fill:#034555;}
	.st6{fill:#1C0F09;}
	.st7{fill:#0089A9;}
	.st8{fill:#391C47;}
	.st9{fill:#EB5F5D;}
	.st10{fill:#EE7476;}
	.st11{fill:#AC9ACA;}
	.st12{fill:#CEC2E1;}
	.st13{fill:#8476AB;}
	.st14{fill:url(#SVGID_1_);}
	.st15{fill:#F7F0A1;}
	.st16{fill:#6CA0C6;}
	.st17{fill:url(#SVGID_2_);}
	.st18{fill:#2D2C7F;}
	.st19{fill:#F1EBF6;}
	.st20{fill:#D6CDE7;}
	.st21{fill:#FFE5B6;}
	.st22{fill:#FFFCEE;}
	.st23{fill:#EBBCD0;}
	.st24{fill:#002B32;}
	.st25{fill:#766D87;}
	.st26{fill:#FFFFFF;}
	.st27{fill:#2C1029;}
	.st28{fill:#253060;}
	.st29{fill:#1A203D;}
	.st30{fill:#E94C4D;}
	.st31{fill:#4E485C;}
	.st32{fill:#988CB6;}
	.st33{fill:#713C6A;}
	.st34{fill:#42163F;}
	.st35{fill:#16142E;}
	.st36{fill:#492145;}
	.st37{fill:#EF7B7D;}
	.st38{fill:#4B2847;}
	.st39{fill:#9ACFDD;}
	.st40{fill:#96518D;}
	.st41{fill:#D0EAF4;}
	.st42{fill:#66B6E6;}
	.st43{fill:#02485C;}
	.st44{fill:#323A6A;}
	.st45{fill:#48415D;}
	.st46{fill:#60567C;}
	.st47{fill:#C5E6EF;}
	.st48{fill:#363A68;}
	.st49{fill:#260F0E;}
	.st50{fill:#2F2253;}
	.st51{fill:#0D0E0E;}
	.st52{fill:#F1A97E;}
	.st53{fill:#1E1F3F;}
	.st54{fill:#304B9B;}
	.st55{fill:#565EA4;}
	.st56{fill:#787EB6;}
	.st57{fill:#1F3441;}
	.st58{fill:#EEF1FA;}
	.st59{fill:#283376;}
	.st60{fill:#3F3216;}
	.st61{fill:#4C3E66;}
	.st62{fill:#554115;}
	.st63{fill:#332944;}
	.st64{fill:#1B1E3D;}
	.st65{fill:#ED6D76;}
	.st66{fill:#99B1C0;}
	.st67{fill:#2E276B;}
	.st68{fill:#CBEAFC;}
	.st69{fill:#B34894;}
	.st70{fill:#7F71A4;}
	.st71{fill:#B1A8C9;}
	.st72{fill:#0C6A81;}
	.st73{fill:#0C5061;}
	.st74{fill:#D1C3E1;}
	.st75{fill:#313B3D;}
	.st76{fill:url(#SVGID_3_);}
	.st77{fill:#359CB4;}
	.st78{fill:#676E9F;}
	.st79{fill:#381D45;}
	.st80{fill:#23204C;}
	.st81{fill:#4C235C;}
	.st82{fill:#3C1B48;}
	.st83{opacity:0.53;fill:#EB5F5D;}
	.st84{fill:#332554;}
	.st85{fill:#283476;}
	.st86{fill:#023236;}
	.st87{fill:#512565;}
</style>
<g>
	<path class="st0" d="M659.4,440c0,10.6-140.1,19.3-313,19.3s-313-8.6-313-19.3c0-10.6,140.1-19.3,313-19.3S659.4,429.3,659.4,440z"
		/>
	<rect x="544.9" y="269.4" class="st1" width="5.8" height="170.5"/>
	<g>
		<g>
			<rect x="354.4" y="321.7" class="st2" width="12.1" height="16.7"/>
			<g>
				<g>
					<rect x="355" y="326.3" class="st3" width="10.6" height="81.3"/>
				</g>
				<g>
					<polygon class="st4" points="417.9,423 367.2,396 367.2,408.3 403.5,423 403.5,425.7 417.9,425.7 					"/>
					<polygon class="st4" points="367.2,408.3 353.5,408.3 353.5,396 353.5,386.1 367.2,386.1 					"/>
					<polygon class="st4" points="302.8,423 353.5,396 353.5,408.3 317.2,423 317.2,425.7 302.8,425.7 					"/>
					<polygon class="st4" points="355.7,396 355.7,425.7 352.3,425.7 352.3,427.8 367.2,427.8 367.2,425.7 364.1,425.7 365.1,396 
											"/>
				</g>
			</g>
		</g>
		<g>
			<path class="st5" d="M382.5,280.7h-50.3l-13.8-85.6c-2.5-15.4,9.4-29.3,25-29.3h28.1c15.6,0,27.5,13.9,25,29.3L382.5,280.7z"/>
			<polygon class="st6" points="325.3,238.2 304.7,246.4 317.3,299.3 322.9,298.5 316.8,252.4 327.8,247.7 			"/>
			<polygon class="st6" points="388,238.2 405.7,250.5 402.8,302 395.6,300.7 398.1,256.3 383.9,248 			"/>
			<path class="st7" d="M411,307.8h-94.2v-9.3h84.9C406.8,298.5,411,302.6,411,307.8L411,307.8z"/>
		</g>
	</g>
	<path class="st8" d="M379.6,130.7c0,0-2,22.3,4.1,28.5c6.1,6.1,7,6,9.2,5.4c0,0-1.4,3.8-5.3,4c-0.3,0-0.5,0-0.8,0
		c-4.5-0.3,0.4,3.4,2.7,4.3c2.4,0.8-4.7,1.8-9.7,0.6c-3.1-0.7-34.9-0.3-39.9-4.7c-3.1-2.7,10.4-16.5,11.1-23.4
		C352.6,127.2,379.6,130.7,379.6,130.7z"/>
	<path class="st9" d="M443.7,128.8c0,0-3,6.3-4.3,13.5c-1.3,7.2,0.7,20,4.3,25.3c3.6,5.3,4,7.3,7.2,7.3c3.3,0,16.3-5.7,17.4-19
		c1.2-13.2-23.7-27.2-23.7-27.2H443.7z"/>
	<path class="st10" d="M578.1,242c0,0-8.4-3.8-10.9-6.4c-2.6-2.6-10.7-9.3-14.9-9.3c-4.1,0-24.8,9.2-21.9,10.3
		c2.9,1.1,18.8-3.7,18.8-3.7s-18.6,7.6-15.3,9.1c3.3,1.4,13.4-2.5,13.4-2.5s-5.2,2.5-5.2,4.3c0,1.9,7.6-1.9,11.9-1.9
		c4.4,0,15.9,7.2,15.9,7.2L578.1,242z"/>
	<g>
		<g>
			<path class="st11" d="M624.2,355.4c-1.6,1.6-4.4,2.7-7.7,2.6c-3.2-0.1-6-1.4-7.5-3.1c1.6-1.6,4.4-2.7,7.7-2.6
				C620,352.4,622.8,353.7,624.2,355.4z"/>
			<g>
				<path class="st11" d="M659.3,422.7c-2.1-14.7-3.1-29.6-2.9-44.4c0.1-7.4,0.5-14.8,1.1-22.2c0.6-7.4,1.5-14.7,2.5-22.1
					c2.1-14.7,5.1-29.2,8.7-43.5c1.8-7.2,3.9-14.3,6.1-21.3c2.2-7,4.6-14,7.4-20.9l0.9,0.4c-2.7,6.9-5,13.9-7.1,20.9
					c-2.1,7.1-4.1,14.2-5.8,21.3c-3.5,14.3-6.3,28.8-8.2,43.4c-0.9,7.3-1.7,14.6-2.2,22c-0.5,7.3-0.8,14.7-0.8,22
					c-0.1,14.7,1.1,29.4,3.4,43.9L659.3,422.7z"/>
				<path class="st11" d="M686.5,218.8c-4.2,2.5-7.5,7.9-8.5,14.4c-0.9,6.5,0.8,12.6,4.1,16.2c4.2-2.5,7.5-7.9,8.5-14.4
					C691.5,228.5,689.8,222.4,686.5,218.8z"/>
				<path class="st11" d="M661.8,241.4c-0.5,3.8,1.1,8.4,4.6,12.2c3.5,3.8,8.1,5.7,11.9,5.4c0.5-3.8-1.1-8.4-4.6-12.2
					C670.2,243,665.6,241.1,661.8,241.4z"/>
				<path class="st11" d="M678.7,261.1c3.2,2.1,8.1,2.6,13,1c4.9-1.6,8.6-4.9,10-8.4c-3.2-2.1-8.1-2.6-13-1
					C683.7,254.3,680.1,257.6,678.7,261.1z"/>
				<path class="st11" d="M674.3,275.1c3.2,2.1,8.1,2.6,13,1c4.9-1.6,8.6-4.9,10-8.4c-3.2-2.1-8.1-2.6-13-1
					C679.3,268.2,675.6,271.5,674.3,275.1z"/>
				<path class="st11" d="M669.2,291.7c3.2,2.1,8.1,2.6,13,1c4.9-1.6,8.6-4.9,10-8.4c-3.2-2.1-8.1-2.6-13-1
					C674.3,284.8,670.6,288.1,669.2,291.7z"/>
				<path class="st11" d="M665.9,307.2c3.2,2.1,8.1,2.6,13,1c4.9-1.6,8.6-4.9,10-8.4c-3.2-2.1-8.1-2.6-13-1
					C670.9,300.3,667.3,303.6,665.9,307.2z"/>
				<path class="st11" d="M667.3,304c-3.2,2.1-8.1,2.6-13,1c-4.9-1.6-8.6-4.9-10-8.4c3.2-2.1,8.1-2.6,13-1
					C662.2,297.2,665.9,300.5,667.3,304z"/>
				<path class="st11" d="M657.3,256.1c-0.5,3.8,1.1,8.4,4.6,12.2c3.5,3.8,8.1,5.7,11.9,5.4c0.5-3.8-1.1-8.4-4.6-12.2
					C665.7,257.8,661.1,255.9,657.3,256.1z"/>
				<path class="st11" d="M652.2,272.9c-0.5,3.8,1.1,8.4,4.6,12.2c3.5,3.8,8.1,5.7,11.9,5.4c0.5-3.8-1.1-8.4-4.6-12.2
					C660.5,274.5,656,272.6,652.2,272.9z"/>
				<g>
					<path class="st11" d="M753.8,287.1c-6.4,3.5-12.4,7.7-18.3,12.1c-5.8,4.4-11.4,9.2-16.7,14.2c-5.3,5-10.4,10.3-15.2,15.9
						c-4.8,5.6-9.2,11.4-13.4,17.4c-8.4,12-15.4,25.1-21,38.6c-5.5,13.6-9.6,27.8-12.1,42.3l3.1,0.5c2.3-14.3,6.1-28.4,11.3-41.9
						c5.3-13.5,12-26.5,20.2-38.5c4.1-6,8.4-11.9,13.1-17.5c4.7-5.6,9.6-10.9,14.8-16c5.2-5.1,10.7-9.9,16.4-14.4
						c5.7-4.5,11.7-8.7,18-12.3L753.8,287.1z"/>
					<path class="st11" d="M777.5,270.6c-0.3,4.9-3.6,10.3-9,14.1c-5.4,3.8-11.6,5-16.3,3.7c0.3-4.9,3.6-10.3,9-14.1
						C766.6,270.5,772.8,269.2,777.5,270.6z"/>
					<path class="st11" d="M741.1,266.4c3.6,3.3,5.8,9.2,5.4,15.8c-0.4,6.6-3.3,12.2-7.2,15.1c-3.6-3.3-5.8-9.2-5.4-15.8
						C734.3,274.9,737.2,269.3,741.1,266.4z"/>
					<path class="st11" d="M719.6,277.2c4.4,2.2,8.1,7.3,9.5,13.8c1.4,6.5,0.1,12.6-2.9,16.4c-4.4-2.2-8.1-7.3-9.5-13.8
						C715.3,287.2,716.6,281,719.6,277.2z"/>
					<path class="st11" d="M705.2,290.5c4.4,2.2,8.1,7.3,9.5,13.8c1.4,6.5,0.1,12.6-2.9,16.4c-4.4-2.2-8.1-7.3-9.5-13.8
						C700.8,300.5,702.1,294.4,705.2,290.5z"/>
					<path class="st11" d="M688.5,304.2c4.8,1,9.7,5,12.7,10.9c3,5.9,3.3,12.2,1.4,16.7c-4.8-1-9.7-5-12.7-10.9
						C686.8,315,686.5,308.7,688.5,304.2z"/>
					<path class="st11" d="M676.7,321.4c4.4-0.2,9.5,2.2,13.4,6.6c3.9,4.4,5.6,9.8,4.9,14.1c-4.4,0.2-9.5-2.2-13.4-6.6
						C677.7,331.1,676,325.7,676.7,321.4z"/>
					<path class="st11" d="M668.2,332.2c4.4-0.2,9.5,2.2,13.4,6.6c3.9,4.4,5.6,9.8,4.9,14.1c-4.4,0.2-9.5-2.2-13.4-6.6
						C669.2,341.8,667.5,336.5,668.2,332.2z"/>
					<path class="st11" d="M663.3,348.1c3.7-0.2,8.1,1.8,11.5,5.6c3.4,3.8,4.8,8.4,4.2,12.1c-3.7,0.2-8.1-1.8-11.5-5.6
						C664.2,356.4,662.7,351.8,663.3,348.1z"/>
					<path class="st11" d="M658.6,364.7c2.7-1.5,6.8-1.7,10.7-0.2c4,1.5,6.8,4.4,7.8,7.3c-2.7,1.5-6.8,1.7-10.7,0.2
						C662.5,370.5,659.6,367.6,658.6,364.7z"/>
					<path class="st11" d="M656.7,378.3c1.7-1.9,4.7-3,8.1-2.9c3.4,0.1,6.3,1.6,7.8,3.6c-1.7,1.9-4.7,3-8.1,2.9
						C661.1,381.8,658.2,380.3,656.7,378.3z"/>
					<path class="st11" d="M768.5,306.9c-4.2,2.6-10.4,3.1-16.7,0.9c-6.2-2.2-10.9-6.5-12.5-11c4.2-2.6,10.4-3.1,16.7-0.9
						C762.2,298,766.9,302.3,768.5,306.9z"/>
					<path class="st11" d="M755.3,317.7c-4.2,2.6-10.4,3.1-16.7,0.9c-6.2-2.2-10.9-6.5-12.5-11c4.2-2.6,10.4-3.1,16.7-0.9
						C749.1,308.8,753.7,313.1,755.3,317.7z"/>
					<path class="st11" d="M741.3,331.1c-4.2,2.6-10.4,3.1-16.7,0.9c-6.2-2.2-10.9-6.5-12.5-11c4.2-2.6,10.4-3.1,16.7-0.9
						C735,322.2,739.6,326.5,741.3,331.1z"/>
					<path class="st11" d="M725.4,340c-3.4,2.1-8.5,2.5-13.6,0.8c-5.1-1.8-8.8-5.3-10.2-9c3.4-2.1,8.5-2.5,13.6-0.8
						C720.3,332.8,724.1,336.3,725.4,340z"/>
					<path class="st11" d="M713.5,348.5c-2.8,1.8-6.9,2.2-11,0.8c-4.1-1.4-7.1-4.3-8.2-7.4c2.8-1.8,6.9-2.2,11-0.8
						C709.5,342.5,712.5,345.4,713.5,348.5z"/>
					<path class="st11" d="M706.4,359.5c-2.8,1.8-6.9,2.2-11,0.8c-4.1-1.4-7.1-4.3-8.2-7.4c2.8-1.8,6.9-2.2,11-0.8
						C702.4,353.5,705.4,356.3,706.4,359.5z"/>
					<path class="st11" d="M698.7,369.3c-2.2,1.9-6,2.8-10,2.2c-4-0.7-7.3-2.7-8.8-5.2c2.2-1.9,6-2.8,10-2.2
						C693.9,364.8,697.1,366.8,698.7,369.3z"/>
					<path class="st11" d="M691.1,381.8c-2.5,0.7-5.9,0.1-8.8-2c-3-2-4.8-4.9-5-7.5c2.5-0.7,5.9-0.1,8.8,2
						C689.1,376.3,690.9,379.2,691.1,381.8z"/>
					<path class="st11" d="M682.8,389.2c-2,0.2-4.4-0.8-6.4-2.7c-1.9-1.9-2.9-4.4-2.7-6.4c2-0.2,4.4,0.8,6.4,2.7
						C682,384.8,682.9,387.3,682.8,389.2z"/>
					<path class="st11" d="M677.2,391.2c-1.3,0.2-2.9-0.3-4-1.5c-1.2-1.2-1.7-2.7-1.5-4c1.3-0.2,2.9,0.3,4,1.5
						C676.9,388.3,677.4,389.9,677.2,391.2z"/>
					<path class="st11" d="M675.4,394.9c-1.3,0.2-2.9-0.3-4-1.5c-1.2-1.2-1.7-2.7-1.5-4c1.3-0.2,2.9,0.3,4,1.5
						C675.1,392,675.6,393.6,675.4,394.9z"/>
				</g>
				<g>
					<path class="st12" d="M611,274.8c4.6,5,8.6,10.5,12.4,16.1c3.8,5.6,7.3,11.5,10.5,17.5c3.2,6,6,12.2,8.6,18.5
						c2.5,6.3,4.7,12.8,6.6,19.3c3.8,13.1,6,26.6,6.9,40.2c0.8,13.6,0.1,27.3-2,40.8l-2.9-0.5c2.2-13.3,3.1-26.8,2.6-40.2
						c-0.7-13.4-2.7-26.8-6.2-39.9c-1.8-6.5-3.8-12.9-6.3-19.2c-2.4-6.3-5.2-12.5-8.3-18.5c-3.1-6-6.4-11.9-10.1-17.5
						c-3.7-5.6-7.7-11.2-12.1-16.2L611,274.8z"/>
					<path class="st12" d="M595.1,253.2c-1.2,4.4,0.1,10.1,3.7,15.1c3.6,5,8.7,7.9,13.2,8.1c1.2-4.4-0.1-10.1-3.7-15.1
						C604.7,256.3,599.6,253.4,595.1,253.2z"/>
					<path class="st12" d="M628.3,260.4c-4.2,1.8-7.9,6.3-9.5,12.3c-1.6,5.9-0.8,11.7,1.8,15.4c4.2-1.8,7.9-6.3,9.5-12.3
						C631.8,269.9,630.9,264.1,628.3,260.4z"/>
					<path class="st12" d="M644,276.3c-4.5,0.7-9.3,4-12.4,9.3c-3.1,5.3-3.9,11.1-2.3,15.3c4.5-0.7,9.3-4,12.4-9.3
						C644.8,286.3,645.5,280.5,644,276.3z"/>
					<path class="st12" d="M652.7,292.3c-4.5,0.7-9.3,4-12.4,9.3c-3.1,5.3-3.9,11.1-2.3,15.3c4.5-0.7,9.3-4,12.4-9.3
						C653.6,302.4,654.3,296.6,652.7,292.3z"/>
					<path class="st12" d="M663.3,309.3c-4.5-0.5-10,1.5-14.4,5.8c-4.4,4.3-6.6,9.7-6.2,14.2c4.5,0.5,10-1.5,14.4-5.8
						C661.5,319.2,663.7,313.8,663.3,309.3z"/>
					<path class="st12" d="M668.5,327.9c-3.8-1.5-9-0.9-13.7,1.8c-4.8,2.7-7.9,6.9-8.5,10.9c3.8,1.5,9,0.9,13.7-1.8
						C664.7,336.1,667.8,331.9,668.5,327.9z"/>
					<path class="st12" d="M672.8,339.9c-3.8-1.5-9-0.9-13.7,1.8c-4.8,2.7-7.9,6.9-8.5,10.9c3.8,1.5,9,0.9,13.7-1.8
						C669,348.1,672.1,343.9,672.8,339.9z"/>
					<path class="st12" d="M672.3,355.3c-3.2-1.3-7.7-0.8-11.8,1.5c-4.1,2.3-6.7,5.9-7.3,9.3c3.2,1.3,7.7,0.8,11.8-1.5
						C669.1,362.3,671.7,358.7,672.3,355.3z"/>
					<path class="st12" d="M671.5,371.3c-1.9-2.2-5.4-3.5-9.4-3.4c-3.9,0.2-7.3,1.8-9.1,4.1c1.9,2.2,5.4,3.5,9.4,3.4
						C666.4,375.2,669.7,373.6,671.5,371.3z"/>
					<path class="st12" d="M669.1,383.9c-0.9-2.1-3.2-4.1-6.3-5c-3-0.9-6-0.5-7.9,0.8c0.9,2.1,3.2,4.1,6.3,5
						C664.2,385.6,667.2,385.2,669.1,383.9z"/>
					<path class="st12" d="M592.2,287.8c2.9,3.5,8.2,5.8,14.4,5.8c6.1,0,11.5-2.4,14.3-6c-2.9-3.5-8.2-5.8-14.4-5.8
						C600.4,281.8,595,284.2,592.2,287.8z"/>
					<path class="st12" d="M600.5,301.2c2.9,3.5,8.2,5.8,14.4,5.8c6.1,0,11.5-2.4,14.3-6c-2.9-3.5-8.2-5.8-14.4-5.8
						C608.7,295.3,603.4,297.7,600.5,301.2z"/>
					<path class="st12" d="M608.9,317.2c2.9,3.5,8.2,5.8,14.4,5.8c6.1,0,11.5-2.4,14.3-6c-2.9-3.5-8.2-5.8-14.4-5.8
						C617.1,311.2,611.7,313.6,608.9,317.2z"/>
					<path class="st12" d="M620.2,329.7c2.3,2.8,6.7,4.7,11.7,4.7c5,0,9.3-2,11.6-4.9c-2.3-2.8-6.7-4.7-11.7-4.7
						C626.8,324.9,622.5,326.8,620.2,329.7z"/>
					<path class="st12" d="M628.1,340.7c1.9,2.4,5.4,4,9.4,4c4,0,7.5-1.7,9.4-4.1c-1.9-2.4-5.4-4-9.4-4
						C633.4,336.7,629.9,338.3,628.1,340.7z"/>
					<path class="st12" d="M631,352.4c1.9,2.4,5.4,4,9.4,4c4,0,7.5-1.7,9.4-4.1c-1.9-2.4-5.4-4-9.4-4
						C636.4,348.4,632.9,350,631,352.4z"/>
					<path class="st12" d="M634.9,363.5c1.4,2.3,4.4,4.3,8.2,4.9c3.7,0.6,7.2-0.2,9.3-2c-1.4-2.3-4.4-4.3-8.2-4.9
						C640.5,360.9,637,361.7,634.9,363.5z"/>
					<path class="st12" d="M637.8,376.6c2,1.4,5.1,1.8,8.4,0.9c3.2-0.9,5.7-2.9,6.7-5.1c-2-1.4-5.1-1.8-8.4-0.9
						C641.3,372.4,638.8,374.4,637.8,376.6z"/>
					<path class="st12" d="M643,385.7c1.7,0.8,4.1,0.6,6.4-0.5c2.3-1.1,3.9-3,4.3-4.8c-1.7-0.8-4.1-0.6-6.4,0.5
						C645,382,643.4,383.9,643,385.7z"/>
					<path class="st12" d="M647.3,389c1.1,0.6,2.6,0.6,4-0.1c1.4-0.7,2.3-1.9,2.5-3.1c-1.1-0.6-2.6-0.6-4,0.1
						C648.4,386.6,647.5,387.8,647.3,389z"/>
					<path class="st12" d="M647.7,392.8c1.1,0.6,2.6,0.6,4-0.1c1.4-0.7,2.3-1.9,2.5-3.1c-1.1-0.6-2.6-0.6-4,0.1
						C648.9,390.4,648,391.6,647.7,392.8z"/>
				</g>
				<g>
					<path class="st13" d="M708.2,259.8c-4.7,5.7-8.7,11.7-12.6,18c-3.8,6.3-7.2,12.7-10.3,19.4c-3.1,6.6-5.9,13.4-8.3,20.3
						c-2.4,6.9-4.4,14-6.1,21.1c-3.4,14.3-5.1,28.9-5.3,43.6c-0.1,14.7,1.3,29.4,4.2,43.8l3.1-0.7c-3.1-14.2-4.7-28.6-4.9-43.2
						c0-14.5,1.5-29,4.6-43.3c1.6-7.1,3.5-14.1,5.7-21c2.3-6.9,4.9-13.7,7.9-20.3c3-6.6,6.3-13.1,10-19.4
						c3.7-6.3,7.7-12.4,12.2-18.1L708.2,259.8z"/>
					<path class="st13" d="M724.2,235.8c1.5,4.7,0.4,10.9-3.2,16.4c-3.6,5.5-8.9,8.9-13.8,9.4c-1.5-4.7-0.4-10.9,3.2-16.4
						C714,239.7,719.3,236.3,724.2,235.8z"/>
					<path class="st13" d="M688.8,245.3c4.6,1.7,8.8,6.4,10.9,12.7s1.4,12.5-1.2,16.7c-4.6-1.7-8.8-6.4-10.9-12.7
						C685.5,255.7,686.2,249.4,688.8,245.3z"/>
					<path class="st13" d="M672.8,263.2c4.9,0.5,10.2,3.8,13.9,9.3c3.7,5.5,4.7,11.7,3.3,16.4c-4.9-0.5-10.2-3.8-13.9-9.3
						C672.4,274.1,671.3,267.9,672.8,263.2z"/>
					<path class="st13" d="M664.2,280.9c4.9,0.5,10.2,3.8,13.9,9.3c3.7,5.5,4.7,11.7,3.3,16.4c-4.9-0.5-10.2-3.8-13.9-9.3
						C663.8,291.8,662.7,285.6,664.2,280.9z"/>
					<path class="st13" d="M653.7,299.8c4.8-0.8,10.8,1.1,15.8,5.5c4.9,4.4,7.6,10.1,7.4,15c-4.8,0.8-10.8-1.1-15.8-5.5
						C656.1,310.4,653.5,304.7,653.7,299.8z"/>
					<path class="st13" d="M649.1,320c4-1.8,9.6-1.5,14.9,1.2c5.3,2.7,8.8,7,9.8,11.3c-4,1.8-9.6,1.5-14.9-1.2
						C653.6,328.7,650,324.3,649.1,320z"/>
					<path class="st13" d="M645.1,333.2c4-1.8,9.6-1.5,14.9,1.2c5.3,2.7,8.8,7,9.8,11.3c-4,1.8-9.6,1.5-14.9-1.2
						C649.6,341.8,646,337.5,645.1,333.2z"/>
					<path class="st13" d="M646.4,349.8c3.4-1.5,8.2-1.3,12.8,1c4.5,2.3,7.6,6,8.4,9.7c-3.4,1.5-8.2,1.3-12.8-1
						C650.3,357.2,647.2,353.4,646.4,349.8z"/>
					<path class="st13" d="M648.1,366.9c2-2.4,5.7-4.1,9.9-4.1c4.2,0,8,1.6,10,4c-2,2.4-5.7,4.1-9.9,4.1
						C653.8,370.9,650.1,369.3,648.1,366.9z"/>
					<path class="st13" d="M651.3,380.4c0.9-2.3,3.3-4.5,6.5-5.7c3.2-1.1,6.5-0.9,8.6,0.5c-0.9,2.3-3.3,4.5-6.5,5.7
						C656.7,381.9,653.5,381.7,651.3,380.4z"/>
					<path class="st13" d="M729.1,272.8c-2.9,3.9-8.6,6.7-15.2,7c-6.6,0.3-12.5-2-15.7-5.7c2.9-3.9,8.6-6.7,15.2-7
						C720,266.9,725.9,269.2,729.1,272.8z"/>
					<path class="st13" d="M720.8,287.8c-2.9,3.9-8.6,6.7-15.2,7c-6.6,0.3-12.5-2-15.7-5.7c2.9-3.9,8.6-6.7,15.2-7
						C711.7,281.8,717.6,284.1,720.8,287.8z"/>
					<path class="st13" d="M712.7,305.4c-2.9,3.9-8.6,6.7-15.2,7c-6.6,0.3-12.5-2-15.7-5.7c2.9-3.9,8.6-6.7,15.2-7
						C703.6,299.4,709.4,301.7,712.7,305.4z"/>
					<path class="st13" d="M701.2,319.5c-2.4,3.2-7,5.5-12.3,5.7c-5.4,0.2-10.1-1.6-12.8-4.6c2.4-3.2,7-5.5,12.3-5.7
						C693.8,314.6,698.6,316.5,701.2,319.5z"/>
					<path class="st13" d="M693.3,331.8c-1.9,2.7-5.6,4.6-10,4.8c-4.3,0.2-8.2-1.4-10.3-3.9c1.9-2.7,5.6-4.6,10-4.8
						C687.3,327.7,691.1,329.3,693.3,331.8z"/>
					<path class="st13" d="M690.7,344.5c-1.9,2.7-5.6,4.6-10,4.8c-4.3,0.2-8.2-1.4-10.3-3.9c1.9-2.7,5.6-4.6,10-4.8
						C684.7,340.5,688.5,342,690.7,344.5z"/>
					<path class="st13" d="M687.1,356.6c-1.4,2.6-4.5,4.8-8.5,5.7c-4,0.9-7.8,0.2-10.1-1.6c1.4-2.6,4.5-4.8,8.5-5.7
						C680.9,354.1,684.7,354.8,687.1,356.6z"/>
					<path class="st13" d="M684.6,371c-2.1,1.6-5.4,2.2-8.9,1.4c-3.5-0.8-6.3-2.8-7.5-5.1c2.1-1.6,5.4-2.2,8.9-1.4
						C680.7,366.6,683.5,368.6,684.6,371z"/>
					<path class="st13" d="M679.6,380.9c-1.8,0.9-4.4,0.9-6.9-0.2c-2.5-1.1-4.3-3-4.9-4.9c1.8-0.9,4.4-0.9,6.9,0.2
						C677.2,377.1,679,379,679.6,380.9z"/>
					<path class="st13" d="M675.1,384.8c-1.1,0.7-2.8,0.7-4.3,0.1c-1.5-0.7-2.6-1.9-2.9-3.2c1.1-0.7,2.8-0.7,4.3-0.1
						C673.8,382.3,674.8,383.5,675.1,384.8z"/>
					<path class="st13" d="M674.8,388.9c-1.1,0.7-2.8,0.7-4.3,0.1c-1.5-0.7-2.6-1.9-2.9-3.2c1.1-0.7,2.8-0.7,4.3-0.1
						C673.5,386.3,674.5,387.6,674.8,388.9z"/>
				</g>
				<g>
					<path class="st11" d="M640.3,377.6c-6.9-10.1-14.2-20-21.9-29.5l0.1-0.1c8,9.3,15.4,19.1,22.6,29.1c7.1,10,13.8,20.3,19.8,31
						c1.5,2.6,2.9,5.2,4.2,7.9c-0.5,0.3-1.1,0.6-1.6,0.9c-1.3-2.7-2.7-5.3-4.1-8C653.6,398.2,647.1,387.7,640.3,377.6z"/>
					<path class="st11" d="M610.7,335.2c2.5,0.2,5.2,1.9,6.9,4.7c1.7,2.8,1.9,5.9,0.9,8.3c-2.5-0.2-5.2-1.9-6.9-4.7
						C610,340.7,609.7,337.6,610.7,335.2z"/>
					<path class="st11" d="M629.6,341.1c1,2,1.1,5.1-0.1,8.1c-1.2,3-3.2,5.2-5.4,6c-1-2-1.1-5.1,0.1-8.1
						C625.4,344.1,627.5,341.9,629.6,341.1z"/>
					<path class="st11" d="M630.3,363.4c-1.7,1.5-4.7,2.2-7.9,1.8c-3.2-0.4-5.8-2-7.1-3.8c1.7-1.5,4.7-2.2,7.9-1.8
						C626.4,360,629,361.5,630.3,363.4z"/>
					<path class="st11" d="M637.9,373.3c-1.7,1.5-4.7,2.2-7.9,1.8c-3.2-0.4-5.8-2-7.1-3.8c1.7-1.5,4.7-2.2,7.9-1.8
						C634,369.8,636.7,371.4,637.9,373.3z"/>
					<path class="st11" d="M643.1,381.1c-1.7,1.5-4.7,2.2-7.9,1.8c-3.2-0.4-5.8-2-7.1-3.8c1.7-1.5,4.7-2.2,7.9-1.8
						C639.2,377.7,641.8,379.2,643.1,381.1z"/>
					<path class="st11" d="M648.9,389.8c-1.7,1.5-4.7,2.2-7.9,1.8c-3.2-0.4-5.8-2-7.1-3.8c1.7-1.5,4.7-2.2,7.9-1.8
						C645,386.4,647.6,387.9,648.9,389.8z"/>
					<path class="st11" d="M636.3,349.6c1,2,1.1,5.1-0.1,8.1c-1.2,3-3.2,5.2-5.4,6c-1-2-1.1-5.1,0.1-8.1
						C632.1,352.6,634.2,350.4,636.3,349.6z"/>
					<path class="st11" d="M642.6,358.3c1,2,1.1,5.1-0.1,8.1c-1.2,3-3.2,5.2-5.4,6c-1-2-1.1-5.1,0.1-8.1
						C638.4,361.3,640.5,359.1,642.6,358.3z"/>
					<path class="st11" d="M648.7,367.1c1,2,1.1,5.1-0.1,8.1c-1.2,3-3.2,5.2-5.4,6c-1-2-1.1-5.1,0.1-8.1
						C644.5,370.1,646.6,367.9,648.7,367.1z"/>
					<path class="st11" d="M654.6,375.7c1,2,1.1,5.1-0.1,8.1c-1.2,3-3.2,5.2-5.4,6c-1-2-1.1-5.1,0.1-8.1
						C650.3,378.7,652.4,376.5,654.6,375.7z"/>
				</g>
			</g>
		</g>
		<linearGradient id="SVGID_1_" gradientUnits="userSpaceOnUse" x1="623.2558" y1="417.3056" x2="693.9775" y2="417.3056">
			<stop  offset="0" style="stop-color:#E94B4B"/>
			<stop  offset="1" style="stop-color:#FBC070"/>
		</linearGradient>
		<path class="st14" d="M635.7,400.8h45.8c7.6,3.9,12.4,9.7,12.4,16.1c0,6.9-5.5,13-14,16.9h-42.7c-8.5-3.9-14-10-14-16.9
			C623.3,410.5,628.1,404.7,635.7,400.8z"/>
		<path class="st15" d="M640,404.4c-4.5-0.5-10.6,2.9-12.1,9.7c-2.1,13.5,11.4,17.5,18.8,14.1c-6.4-1.6-13.5-4.6-13.7-11.2
			c-0.4-3.5,1.7-6.8,1.7-6.9c0.3-0.4,0.9-1.4,1.9-2.6C637.6,406.3,638.8,405.3,640,404.4z"/>
		
			<rect x="633.6" y="398.8" transform="matrix(-1 -1.224647e-16 1.224647e-16 -1 1317.7518 800.7811)" class="st16" width="50.6" height="3.2"/>
	</g>
	<g>
		<g>
			<path class="st11" d="M116.6,347.1c-1.6,1.6-4.4,2.7-7.7,2.6c-3.2-0.1-6-1.4-7.5-3.1c1.6-1.6,4.4-2.7,7.7-2.6
				C112.4,344.1,115.1,345.3,116.6,347.1z"/>
			<g>
				<path class="st11" d="M151.7,414.5c-2.1-14.7-3.1-29.6-2.9-44.4c0.1-7.4,0.5-14.8,1.1-22.2c0.6-7.4,1.5-14.7,2.5-22.1
					c2.1-14.7,5.1-29.2,8.7-43.5c1.8-7.2,3.9-14.3,6.1-21.3c2.2-7,4.6-14,7.4-20.9l0.9,0.4c-2.7,6.9-5,13.9-7.1,20.9
					c-2.1,7.1-4.1,14.2-5.8,21.3c-3.5,14.3-6.3,28.8-8.2,43.4c-0.9,7.3-1.7,14.6-2.2,22c-0.5,7.3-0.8,14.7-0.8,22
					c-0.1,14.7,1.1,29.4,3.4,43.9L151.7,414.5z"/>
				<path class="st11" d="M178.9,210.7c-4.2,2.5-7.5,7.9-8.5,14.4c-0.9,6.5,0.8,12.6,4.1,16.2c4.2-2.5,7.5-7.9,8.5-14.4
					C183.9,220.4,182.2,214.3,178.9,210.7z"/>
				<path class="st11" d="M154.2,233.3c-0.5,3.8,1.1,8.4,4.6,12.2c3.5,3.8,8.1,5.7,11.9,5.4c0.5-3.8-1.1-8.4-4.6-12.2
					C162.6,234.9,158,233,154.2,233.3z"/>
				<path class="st11" d="M171.1,252.1c3.2,2.1,8.1,2.6,13,1c4.9-1.6,8.6-4.9,10-8.4c-3.2-2.1-8.1-2.6-13-1
					C176.1,245.3,172.5,248.6,171.1,252.1z"/>
				<path class="st11" d="M166.7,266.9c3.2,2.1,8.1,2.6,13,1c4.9-1.6,8.6-4.9,10-8.4c-3.2-2.1-8.1-2.6-13-1
					C171.7,260.1,168,263.4,166.7,266.9z"/>
				<path class="st11" d="M161.6,283.5c3.2,2.1,8.1,2.6,13,1c4.9-1.6,8.6-4.9,10-8.4c-3.2-2.1-8.1-2.6-13-1
					C166.7,276.7,163,280,161.6,283.5z"/>
				<path class="st11" d="M158.3,299c3.2,2.1,8.1,2.6,13,1c4.9-1.6,8.6-4.9,10-8.4c-3.2-2.1-8.1-2.6-13-1
					C163.3,292.2,159.7,295.5,158.3,299z"/>
				<path class="st11" d="M159.7,295.9c-3.2,2.1-8.1,2.6-13,1c-4.9-1.6-8.6-4.9-10-8.4c3.2-2.1,8.1-2.6,13-1
					C154.6,289.1,158.3,292.3,159.7,295.9z"/>
				<path class="st11" d="M149.7,248c-0.5,3.8,1.1,8.4,4.6,12.2s8.1,5.7,11.9,5.4c0.5-3.8-1.1-8.4-4.6-12.2S153.5,247.7,149.7,248z"
					/>
				<path class="st11" d="M144.6,264.7c-0.5,3.8,1.1,8.4,4.6,12.2c3.5,3.8,8.1,5.7,11.9,5.4c0.5-3.8-1.1-8.4-4.6-12.2
					C152.9,266.4,148.4,264.5,144.6,264.7z"/>
				<g>
					<path class="st11" d="M246.2,279c-6.4,3.5-12.4,7.7-18.3,12.1c-5.8,4.4-11.4,9.2-16.7,14.2c-5.3,5-10.4,10.3-15.2,15.9
						c-4.8,5.6-9.2,11.4-13.4,17.4c-8.4,12-15.4,25.1-21,38.6c-5.5,13.6-9.6,27.8-12.1,42.3l3.1,0.5c2.3-14.3,6.1-28.4,11.3-41.9
						c5.3-13.5,12-26.5,20.2-38.5c4.1-6,8.4-11.9,13.1-17.5c4.7-5.6,9.6-10.9,14.8-16c5.2-5.1,10.7-9.9,16.4-14.4
						c5.7-4.5,11.7-8.7,18-12.3L246.2,279z"/>
					<path class="st11" d="M269.9,262.4c-0.3,4.9-3.6,10.3-9,14.1c-5.4,3.8-11.6,5-16.3,3.7c0.3-4.9,3.6-10.3,9-14.1
						C259,262.3,265.2,261.1,269.9,262.4z"/>
					<path class="st11" d="M233.5,258.3c3.6,3.3,5.8,9.2,5.4,15.8c-0.4,6.6-3.3,12.2-7.2,15.1c-3.6-3.3-5.8-9.2-5.4-15.8
						C226.7,266.8,229.6,261.2,233.5,258.3z"/>
					<path class="st11" d="M212,269.1c4.4,2.2,8.1,7.3,9.5,13.8c1.4,6.5,0.1,12.6-2.9,16.4c-4.4-2.2-8.1-7.3-9.5-13.8
						C207.7,279.1,209,272.9,212,269.1z"/>
					<path class="st11" d="M197.6,282.4c4.4,2.2,8.1,7.3,9.5,13.8c1.4,6.5,0.1,12.6-2.9,16.4c-4.4-2.2-8.1-7.3-9.5-13.8
						C193.2,292.4,194.5,286.2,197.6,282.4z"/>
					<path class="st11" d="M180.9,296.1c4.8,1,9.7,5,12.7,10.9c3,5.9,3.3,12.2,1.4,16.7c-4.8-1-9.7-5-12.7-10.9
						C179.2,306.9,178.9,300.6,180.9,296.1z"/>
					<path class="st11" d="M169.1,313.3c4.4-0.2,9.5,2.2,13.4,6.6c3.9,4.4,5.6,9.8,4.9,14.1c-4.4,0.2-9.5-2.2-13.4-6.6
						C170.1,322.9,168.4,317.6,169.1,313.3z"/>
					<path class="st11" d="M160.6,324c4.4-0.2,9.5,2.2,13.4,6.6c3.9,4.4,5.6,9.8,4.9,14.1c-4.4,0.2-9.5-2.2-13.4-6.6
						C161.6,333.7,159.9,328.3,160.6,324z"/>
					<path class="st11" d="M155.7,339.9c3.7-0.2,8.1,1.8,11.5,5.6c3.4,3.8,4.8,8.4,4.2,12.1c-3.7,0.2-8.1-1.8-11.5-5.6
						C156.6,348.2,155.1,343.6,155.7,339.9z"/>
					<path class="st11" d="M151,356.5c2.7-1.5,6.8-1.7,10.7-0.2c4,1.5,6.8,4.4,7.8,7.3c-2.7,1.5-6.8,1.7-10.7,0.2
						C154.9,362.4,152,359.5,151,356.5z"/>
					<path class="st11" d="M149.1,370.2c1.7-1.9,4.7-3,8.1-2.9c3.4,0.1,6.3,1.6,7.8,3.6c-1.7,1.9-4.7,3-8.1,2.9
						C153.5,373.6,150.6,372.2,149.1,370.2z"/>
					<path class="st11" d="M260.9,298.7c-4.2,2.6-10.4,3.1-16.7,0.9c-6.2-2.2-10.9-6.5-12.5-11c4.2-2.6,10.4-3.1,16.7-0.9
						C254.6,289.9,259.3,294.2,260.9,298.7z"/>
					<path class="st11" d="M247.7,309.6c-4.2,2.6-10.4,3.1-16.7,0.9c-6.2-2.2-10.9-6.5-12.5-11.1c4.2-2.6,10.4-3.1,16.7-0.9
						C241.5,300.7,246.1,305,247.7,309.6z"/>
					<path class="st11" d="M233.7,323c-4.2,2.6-10.4,3.1-16.7,0.9c-6.2-2.2-10.9-6.5-12.5-11c4.2-2.6,10.4-3.1,16.7-0.9
						C227.4,314.1,232,318.4,233.7,323z"/>
					<path class="st11" d="M217.8,331.9c-3.4,2.1-8.5,2.5-13.6,0.8c-5.1-1.8-8.8-5.3-10.2-9c3.4-2.1,8.5-2.5,13.6-0.8
						C212.7,324.7,216.5,328.1,217.8,331.9z"/>
					<path class="st11" d="M205.9,340.4c-2.8,1.8-6.9,2.2-11,0.8c-4.1-1.4-7.1-4.3-8.2-7.4c2.8-1.8,6.9-2.2,11-0.8
						C201.9,334.4,204.9,337.3,205.9,340.4z"/>
					<path class="st11" d="M198.8,351.3c-2.8,1.8-6.9,2.2-11,0.8c-4.1-1.4-7.1-4.3-8.2-7.4c2.8-1.8,6.9-2.2,11-0.8
						C194.8,345.3,197.8,348.2,198.8,351.3z"/>
					<path class="st11" d="M191.1,361.2c-2.2,1.9-6,2.8-10,2.2c-4-0.7-7.3-2.7-8.8-5.2c2.2-1.9,6-2.8,10-2.2
						C186.3,356.6,189.5,358.7,191.1,361.2z"/>
					<path class="st11" d="M183.5,373.7c-2.5,0.7-5.9,0.1-8.8-2c-3-2-4.8-4.9-5-7.5c2.5-0.7,5.9-0.1,8.8,2
						C181.5,368.2,183.3,371.1,183.5,373.7z"/>
					<path class="st11" d="M175.2,381.1c-2,0.2-4.4-0.8-6.4-2.7c-1.9-1.9-2.9-4.4-2.7-6.4c2-0.2,4.4,0.8,6.4,2.7
						C174.4,376.7,175.3,379.1,175.2,381.1z"/>
					<path class="st11" d="M169.6,383.1c-1.3,0.2-2.9-0.3-4-1.5c-1.2-1.2-1.7-2.7-1.5-4c1.3-0.2,2.9,0.3,4,1.5
						C169.3,380.2,169.8,381.8,169.6,383.1z"/>
					<path class="st11" d="M167.8,386.7c-1.3,0.2-2.9-0.3-4-1.5c-1.2-1.2-1.7-2.7-1.5-4c1.3-0.2,2.9,0.3,4,1.5
						C167.5,383.9,168,385.4,167.8,386.7z"/>
				</g>
				<g>
					<path class="st12" d="M103.4,266.6c4.6,5,8.6,10.5,12.4,16.1c3.8,5.6,7.3,11.5,10.5,17.5c3.2,6,6,12.2,8.6,18.5
						c2.5,6.3,4.7,12.8,6.6,19.3c3.8,13.1,6,26.6,6.9,40.2c0.8,13.6,0.1,27.3-2,40.8l-2.9-0.5c2.2-13.3,3.1-26.8,2.6-40.2
						c-0.7-13.4-2.7-26.8-6.2-39.9c-1.8-6.5-3.8-12.9-6.3-19.2c-2.4-6.3-5.2-12.5-8.3-18.5c-3.1-6-6.4-11.9-10.1-17.5
						c-3.7-5.6-7.7-11.2-12.1-16.2L103.4,266.6z"/>
					<path class="st12" d="M87.5,245c-1.2,4.4,0.1,10.1,3.7,15.1c3.6,5,8.7,7.9,13.2,8.1c1.2-4.4-0.1-10.1-3.7-15.1
						C97.1,248.2,92.1,245.3,87.5,245z"/>
					<path class="st12" d="M120.7,252.3c-4.2,1.8-7.9,6.3-9.5,12.3c-1.6,5.9-0.8,11.7,1.8,15.4c4.2-1.8,7.9-6.3,9.5-12.3
						C124.2,261.7,123.3,256,120.7,252.3z"/>
					<path class="st12" d="M136.4,268.1c-4.5,0.7-9.3,4-12.4,9.3c-3.1,5.3-3.9,11.1-2.3,15.3c4.5-0.7,9.3-4,12.4-9.3
						C137.2,278.2,137.9,272.4,136.4,268.1z"/>
					<path class="st12" d="M145.1,284.2c-4.5,0.7-9.3,4-12.4,9.3c-3.1,5.3-3.9,11.1-2.3,15.3c4.5-0.7,9.3-4,12.4-9.3
						C146,294.2,146.7,288.4,145.1,284.2z"/>
					<path class="st12" d="M155.7,301.2c-4.5-0.5-10,1.5-14.4,5.8c-4.4,4.3-6.6,9.7-6.2,14.2c4.5,0.5,10-1.5,14.4-5.8
						C153.9,311.1,156.1,305.7,155.7,301.2z"/>
					<path class="st12" d="M160.9,319.7c-3.8-1.5-9-0.9-13.7,1.8c-4.8,2.7-7.9,6.9-8.5,10.9c3.8,1.5,9,0.9,13.7-1.8
						C157.1,327.9,160.2,323.7,160.9,319.7z"/>
					<path class="st12" d="M165.2,331.7c-3.8-1.5-9-0.9-13.7,1.8c-4.8,2.7-7.9,6.9-8.5,10.9c3.8,1.5,9,0.9,13.7-1.8
						C161.4,339.9,164.5,335.7,165.2,331.7z"/>
					<path class="st12" d="M164.7,347.2c-3.2-1.3-7.7-0.8-11.8,1.5c-4.1,2.3-6.7,5.9-7.3,9.3c3.2,1.3,7.7,0.8,11.8-1.5
						C161.5,354.2,164.1,350.6,164.7,347.2z"/>
					<path class="st12" d="M163.9,363.1c-1.9-2.2-5.4-3.5-9.4-3.4c-3.9,0.2-7.3,1.8-9.1,4.1c1.9,2.2,5.4,3.5,9.4,3.4
						C158.8,367.1,162.1,365.5,163.9,363.1z"/>
					<path class="st12" d="M161.5,375.7c-0.9-2.1-3.2-4.1-6.3-5c-3-0.9-6-0.5-7.9,0.8c0.9,2.1,3.2,4.1,6.3,5
						C156.6,377.4,159.6,377,161.5,375.7z"/>
					<path class="st12" d="M84.6,279.6c2.9,3.5,8.2,5.8,14.4,5.8c6.1,0,11.5-2.4,14.3-6c-2.9-3.5-8.2-5.8-14.4-5.8
						C92.8,273.7,87.4,276.1,84.6,279.6z"/>
					<path class="st12" d="M92.9,293.1c2.9,3.5,8.2,5.8,14.4,5.8c6.1,0,11.5-2.4,14.3-6c-2.9-3.5-8.2-5.8-14.4-5.8
						C101.1,287.2,95.8,289.6,92.9,293.1z"/>
					<path class="st12" d="M101.3,309c2.9,3.5,8.2,5.8,14.4,5.8c6.1,0,11.5-2.4,14.3-6c-2.9-3.5-8.2-5.8-14.4-5.8
						C109.5,303.1,104.1,305.5,101.3,309z"/>
					<path class="st12" d="M112.6,321.6c2.3,2.8,6.7,4.7,11.7,4.7c5,0,9.3-2,11.6-4.9c-2.3-2.8-6.7-4.7-11.7-4.7
						C119.2,316.8,114.9,318.7,112.6,321.6z"/>
					<path class="st12" d="M120.5,332.6c1.9,2.4,5.4,4,9.4,4c4,0,7.5-1.7,9.4-4.1c-1.9-2.4-5.4-4-9.4-4
						C125.8,328.5,122.3,330.2,120.5,332.6z"/>
					<path class="st12" d="M123.5,344.3c1.9,2.4,5.4,4,9.4,4c4,0,7.5-1.7,9.4-4.1c-1.9-2.4-5.4-4-9.4-4
						C128.8,340.3,125.3,341.9,123.5,344.3z"/>
					<path class="st12" d="M127.3,355.3c1.4,2.3,4.4,4.3,8.2,4.9c3.7,0.6,7.2-0.2,9.3-2c-1.4-2.3-4.4-4.3-8.2-4.9
						C132.9,352.7,129.4,353.6,127.3,355.3z"/>
					<path class="st12" d="M130.2,368.5c2,1.4,5.1,1.8,8.4,0.9c3.2-0.9,5.7-2.9,6.7-5.1c-2-1.4-5.1-1.8-8.4-0.9
						C133.7,364.3,131.2,366.3,130.2,368.5z"/>
					<path class="st12" d="M135.4,377.5c1.7,0.8,4.1,0.6,6.4-0.5c2.3-1.1,3.9-3,4.3-4.8c-1.7-0.8-4.1-0.6-6.4,0.5
						C137.4,373.9,135.8,375.7,135.4,377.5z"/>
					<path class="st12" d="M139.7,380.9c1.1,0.6,2.6,0.6,4-0.1c1.4-0.7,2.3-1.9,2.5-3.1c-1.1-0.6-2.6-0.6-4,0.1
						C140.8,378.5,139.9,379.7,139.7,380.9z"/>
					<path class="st12" d="M140.1,384.7c1.1,0.6,2.6,0.6,4-0.1c1.4-0.7,2.3-1.9,2.5-3.1c-1.1-0.6-2.6-0.6-4,0.1
						C141.3,382.3,140.4,383.5,140.1,384.7z"/>
				</g>
				<g>
					<path class="st13" d="M200.6,251.7c-4.7,5.6-8.7,11.7-12.6,18c-3.8,6.3-7.2,12.7-10.3,19.4c-3.1,6.6-5.9,13.4-8.3,20.3
						c-2.4,6.9-4.4,14-6.1,21.1c-3.4,14.3-5.1,28.9-5.3,43.6c-0.1,14.7,1.3,29.4,4.2,43.8l3.1-0.7c-3.1-14.2-4.7-28.6-4.9-43.2
						c0-14.5,1.5-29,4.6-43.3c1.6-7.1,3.5-14.1,5.7-21c2.3-6.9,4.9-13.7,7.9-20.3c3-6.6,6.3-13.1,10-19.4
						c3.7-6.3,7.7-12.4,12.2-18.1L200.6,251.7z"/>
					<path class="st13" d="M216.6,227.6c1.5,4.7,0.4,10.9-3.2,16.4c-3.6,5.5-8.9,8.9-13.8,9.4c-1.5-4.7-0.4-10.9,3.2-16.4
						C206.4,231.5,211.7,228.1,216.6,227.6z"/>
					<path class="st13" d="M181.2,237.1c4.6,1.7,8.8,6.4,10.9,12.7c2.1,6.3,1.5,12.5-1.2,16.7c-4.6-1.7-8.8-6.4-10.9-12.7
						C177.9,247.5,178.6,241.3,181.2,237.1z"/>
					<path class="st13" d="M165.2,255c4.9,0.5,10.2,3.8,13.9,9.3c3.7,5.5,4.7,11.7,3.3,16.4c-4.9-0.5-10.2-3.8-13.9-9.3
						C164.8,265.9,163.7,259.7,165.2,255z"/>
					<path class="st13" d="M156.6,272.8c4.9,0.5,10.2,3.8,13.9,9.3c3.7,5.5,4.7,11.7,3.3,16.4c-4.9-0.5-10.2-3.8-13.9-9.3
						C156.2,283.7,155.1,277.4,156.6,272.8z"/>
					<path class="st13" d="M146.1,291.6c4.8-0.8,10.8,1.1,15.8,5.5c4.9,4.4,7.6,10.1,7.4,15c-4.8,0.8-10.8-1.1-15.8-5.5
						C148.5,302.3,145.9,296.5,146.1,291.6z"/>
					<path class="st13" d="M141.5,311.9c4-1.8,9.6-1.5,14.9,1.2c5.3,2.7,8.8,7,9.8,11.3c-4,1.8-9.6,1.5-14.9-1.2
						C146,320.5,142.4,316.2,141.5,311.9z"/>
					<path class="st13" d="M137.5,325.1c4-1.8,9.6-1.5,14.9,1.2c5.3,2.7,8.8,7,9.8,11.3c-4,1.8-9.6,1.5-14.9-1.2
						C142,333.7,138.4,329.3,137.5,325.1z"/>
					<path class="st13" d="M138.8,341.6c3.4-1.5,8.2-1.3,12.8,1c4.5,2.3,7.6,6,8.4,9.7c-3.4,1.5-8.2,1.3-12.8-1
						C142.7,349,139.6,345.3,138.8,341.6z"/>
					<path class="st13" d="M140.5,358.8c2-2.4,5.7-4.1,9.9-4.1c4.3,0,8,1.6,10,4c-2,2.4-5.7,4.1-9.9,4.1
						C146.2,362.8,142.5,361.2,140.5,358.8z"/>
					<path class="st13" d="M143.8,372.2c0.9-2.3,3.3-4.5,6.5-5.7c3.2-1.1,6.5-0.9,8.6,0.5c-0.9,2.3-3.3,4.5-6.5,5.7
						C149.1,373.8,145.9,373.5,143.8,372.2z"/>
					<path class="st13" d="M221.5,264.7c-2.9,3.9-8.6,6.7-15.2,7c-6.6,0.3-12.5-2-15.7-5.7c2.9-3.9,8.6-6.7,15.2-7
						C212.4,258.7,218.3,261.1,221.5,264.7z"/>
					<path class="st13" d="M213.3,279.6c-2.9,3.9-8.6,6.7-15.2,7c-6.6,0.3-12.5-2-15.7-5.7c2.9-3.9,8.6-6.7,15.2-7
						C204.1,273.7,210,276,213.3,279.6z"/>
					<path class="st13" d="M205.1,297.3c-2.9,3.9-8.6,6.7-15.2,7c-6.6,0.3-12.5-2-15.7-5.7c2.9-3.9,8.6-6.7,15.2-7
						C196,291.3,201.8,293.6,205.1,297.3z"/>
					<path class="st13" d="M193.6,311.4c-2.4,3.2-7,5.5-12.3,5.7c-5.4,0.2-10.1-1.6-12.8-4.6c2.4-3.2,7-5.5,12.3-5.7
						C186.2,306.5,191,308.4,193.6,311.4z"/>
					<path class="st13" d="M185.7,323.6c-1.9,2.7-5.6,4.6-10,4.8c-4.3,0.2-8.2-1.4-10.3-3.9c1.9-2.7,5.6-4.6,10-4.8
						C179.7,319.5,183.5,321.1,185.7,323.6z"/>
					<path class="st13" d="M183.1,336.4c-1.9,2.7-5.6,4.6-10,4.8c-4.3,0.2-8.2-1.4-10.3-3.9c1.9-2.7,5.6-4.6,10-4.8
						C177.1,332.3,180.9,333.9,183.1,336.4z"/>
					<path class="st13" d="M179.5,348.5c-1.4,2.6-4.5,4.8-8.5,5.7c-4,0.9-7.8,0.2-10.1-1.6c1.4-2.6,4.5-4.8,8.5-5.7
						C173.3,346,177.1,346.7,179.5,348.5z"/>
					<path class="st13" d="M177,362.8c-2.1,1.6-5.4,2.2-8.9,1.4c-3.5-0.8-6.3-2.8-7.5-5.2c2.1-1.6,5.4-2.2,8.9-1.4
						C173.1,358.5,175.9,360.5,177,362.8z"/>
					<path class="st13" d="M172,372.8c-1.8,0.9-4.4,0.9-6.9-0.2c-2.5-1.1-4.3-3-4.9-4.9c1.8-0.9,4.4-0.9,6.9,0.2
						C169.6,369,171.4,370.9,172,372.8z"/>
					<path class="st13" d="M167.5,376.7c-1.1,0.7-2.8,0.7-4.3,0.1c-1.5-0.7-2.6-1.9-2.9-3.2c1.1-0.7,2.8-0.7,4.3-0.1
						C166.2,374.1,167.2,375.4,167.5,376.7z"/>
					<path class="st13" d="M167.2,380.7c-1.1,0.7-2.8,0.7-4.3,0.1c-1.5-0.7-2.6-1.9-2.9-3.2c1.1-0.7,2.8-0.7,4.3-0.1
						C165.9,378.2,166.9,379.4,167.2,380.7z"/>
				</g>
				<g>
					<path class="st11" d="M132.7,369.5c-6.9-10.1-14.2-20-21.9-29.5l0.1-0.1c8,9.3,15.4,19.1,22.6,29.1c7.1,10,13.8,20.3,19.8,31
						c1.5,2.6,2.9,5.2,4.2,7.9c-0.5,0.3-1.1,0.6-1.6,0.9c-1.3-2.7-2.7-5.3-4.1-8C146,390,139.5,379.6,132.7,369.5z"/>
					<path class="st11" d="M103.1,327.1c2.5,0.2,5.2,1.9,6.9,4.7c1.7,2.8,1.9,5.9,0.9,8.3c-2.5-0.2-5.2-1.9-6.9-4.7
						C102.4,332.6,102.1,329.4,103.1,327.1z"/>
					<path class="st11" d="M122,333c1,2,1.1,5.1-0.1,8.1c-1.2,3-3.2,5.2-5.4,6c-1-2-1.1-5.1,0.1-8.1C117.8,336,119.9,333.8,122,333z
						"/>
					<path class="st11" d="M122.7,355.3c-1.7,1.5-4.7,2.2-7.9,1.8c-3.2-0.4-5.8-2-7.1-3.8c1.7-1.5,4.7-2.2,7.9-1.8
						C118.8,351.9,121.4,353.4,122.7,355.3z"/>
					<path class="st11" d="M130.3,365.1c-1.7,1.5-4.7,2.2-7.9,1.8c-3.2-0.4-5.8-2-7.1-3.8c1.7-1.5,4.7-2.2,7.9-1.8
						C126.4,361.7,129.1,363.2,130.3,365.1z"/>
					<path class="st11" d="M135.5,373c-1.7,1.5-4.7,2.2-7.9,1.8c-3.2-0.4-5.8-2-7.1-3.8c1.7-1.5,4.7-2.2,7.9-1.8
						C131.6,369.6,134.2,371.1,135.5,373z"/>
					<path class="st11" d="M141.3,381.6c-1.7,1.5-4.7,2.2-7.9,1.8c-3.2-0.4-5.8-2-7.1-3.8c1.7-1.5,4.7-2.2,7.9-1.8
						C137.4,378.2,140,379.8,141.3,381.6z"/>
					<path class="st11" d="M128.7,341.5c1,2,1.1,5.1-0.1,8.1c-1.2,3-3.2,5.2-5.4,6c-1-2-1.1-5.1,0.1-8.1
						C124.5,344.5,126.6,342.3,128.7,341.5z"/>
					<path class="st11" d="M135,350.2c1,2,1.1,5.1-0.1,8.1c-1.2,3-3.2,5.2-5.4,6c-1-2-1.1-5.1,0.1-8.1
						C130.8,353.2,132.9,351,135,350.2z"/>
					<path class="st11" d="M141.1,358.9c1,2,1.1,5.1-0.1,8.1c-1.2,3-3.2,5.2-5.4,6c-1-2-1.1-5.1,0.1-8.1
						C136.9,362,139,359.7,141.1,358.9z"/>
					<path class="st11" d="M147,367.6c1,2,1.1,5.1-0.1,8.1c-1.2,3-3.2,5.2-5.4,6c-1-2-1.1-5.1,0.1-8.1
						C142.7,370.6,144.8,368.3,147,367.6z"/>
				</g>
			</g>
		</g>
		<linearGradient id="SVGID_2_" gradientUnits="userSpaceOnUse" x1="115.6581" y1="409.1703" x2="186.3788" y2="409.1703">
			<stop  offset="0" style="stop-color:#E94B4B"/>
			<stop  offset="1" style="stop-color:#FBC070"/>
		</linearGradient>
		<path class="st17" d="M128.1,392.6h45.8c7.6,3.9,12.4,9.7,12.4,16.1c0,6.9-5.5,13-14,16.9h-42.7c-8.5-3.9-14-10-14-16.9
			C115.7,402.3,120.5,396.5,128.1,392.6z"/>
		<path class="st15" d="M132.4,396.3c-4.5-0.5-10.6,2.9-12.1,9.7c-2.1,13.5,11.4,17.5,18.8,14.1c-6.4-1.6-13.5-4.6-13.7-11.2
			c-0.4-3.5,1.7-6.8,1.7-6.9c0.3-0.4,0.9-1.4,1.9-2.6C130,398.2,131.2,397.2,132.4,396.3z"/>
		
			<rect x="126" y="390.7" transform="matrix(-1 -1.224647e-16 1.224647e-16 -1 302.5551 784.5117)" class="st16" width="50.6" height="3.2"/>
	</g>
	<g>
		
			<rect x="472.6" y="1.9" transform="matrix(-1.836970e-16 1 -1 -1.836970e-16 672.1125 -472.6213)" class="st18" width="199.5" height="195.8"/>
		<rect x="478.2" y="3.8" class="st19" width="188.3" height="192"/>
		<g>
			<path class="st20" d="M580.2,58.2h-35.2L576,75C578.6,70,580.1,64.3,580.2,58.2z"/>
			<path class="st20" d="M504.4,58.2c0.2,13.9,7.9,25.9,19.2,32.3l17.5-32.3H504.4z"/>
			<path class="st20" d="M543,58.7v36.8c13.9-0.2,25.9-7.9,32.3-19.3L543,58.7z"/>
			<path class="st20" d="M504.4,56.9h35.2l-31-16.8C506,45.1,504.5,50.8,504.4,56.9z"/>
			<path class="st21" d="M561,24.6l-17.5,32.3h36.8C580,43,572.3,31,561,24.6z"/>
			<path class="st20" d="M541.6,56.4V19.7c-13.9,0.2-25.9,7.9-32.3,19.2L541.6,56.4z"/>
			<path class="st22" d="M543.5,18.6v35.2l16.8-31C555.2,20.2,549.5,18.7,543.5,18.6z"/>
			<path class="st20" d="M541.6,60.2l-16.8,31c5,2.6,10.7,4.1,16.8,4.2V60.2z"/>
			<g>
				<rect x="509.4" y="150.2" class="st20" width="8.3" height="31.4"/>
				<rect x="524.5" y="144.5" class="st20" width="8.3" height="37.1"/>
				<rect x="539.5" y="138.8" class="st20" width="8.3" height="42.8"/>
				<rect x="554.5" y="133.2" class="st20" width="8.3" height="48.5"/>
				<rect x="569.6" y="127.5" class="st20" width="8.3" height="54.1"/>
				<rect x="584.6" y="121.8" class="st20" width="8.3" height="59.8"/>
				<rect x="599.6" y="116.1" class="st20" width="8.3" height="65.5"/>
				<rect x="614.7" y="110.4" class="st20" width="8.3" height="71.2"/>
				<rect x="629.7" y="104.8" class="st20" width="8.3" height="76.9"/>
				<rect x="644.7" y="99.1" class="st20" width="8.3" height="82.5"/>
			</g>
			<path class="st23" d="M655.2,66.8L655.2,66.8L655.2,66.8c-0.7,0.1-20.6,3.7-21.3,3.7l6.8,1.8c-2.6,1-16.9,6.4-20.4,7.7
				c-1.1,4.6-1.8,7.9-2.4,10.6c-3.2-0.3-9.3-0.9-14.5-1.4c-2,1.8-17.2,15.5-19.2,17.2c-4.8-0.6-10.7-1.4-15-1.9
				c-4.1,3.5-23.9,20.3-27.8,23.7c-3.9-1.3-9.5-3.2-13-4.4c-1.5,1-26.7,18.5-28.2,19.5l1.4,2l27.1-18.8c4,1.4,9.3,3.1,13.1,4.4
				c3.3-2.8,25-21.3,28-23.9c4.8,0.6,10.7,1.4,15.1,1.9c1.1-1,18.5-16.6,19.2-17.3c2.7,0.3,11.6,1.1,15.6,1.5
				c0.7-2.9,2.3-10,2.6-11.4l19.3-8.9l-1.5,6.6L655.2,66.8z"/>
		</g>
	</g>
	<g>
		<g>
			<g>
				<g>
					<rect x="221.5" y="326.3" class="st3" width="10.6" height="81.3"/>
				</g>
				<g>
					<polygon class="st4" points="233.7,408.3 220,408.3 220,396 220,386.1 233.7,386.1 					"/>
					<polygon class="st4" points="169.3,423 220,396 220,408.3 183.7,423 183.7,425.7 169.3,425.7 					"/>
					<polygon class="st4" points="284.4,423 233.7,396 233.7,408.3 270,423 270,425.7 284.4,425.7 					"/>
					<polygon class="st4" points="222.2,396 222.2,425.7 218.8,425.7 218.8,427.8 233.7,427.8 233.7,425.7 230.6,425.7 231.6,396 
											"/>
				</g>
			</g>
			<rect x="220.2" y="321.7" class="st2" width="13.7" height="16.7"/>
		</g>
		<g>
			<polygon class="st6" points="191.8,238.2 175,247.5 188.6,309 195.2,307.8 187.4,250.7 196.5,246.7 			"/>
			<polygon class="st6" points="254.5,238.2 272.2,252.1 269.2,310.5 262.1,309 264.6,258.7 250.4,249.2 			"/>
			<path class="st7" d="M249,280.7h-50.3l-13.8-85.6c-2.5-15.4,9.4-29.3,25-29.3h28.1c15.6,0,27.5,13.9,25,29.3L249,280.7z"/>
			<path class="st7" d="M275.4,315.1h-94.2l0,0c0-5.2,4.2-9.3,9.3-9.3H266C271.2,305.8,275.4,310,275.4,315.1L275.4,315.1z"/>
		</g>
	</g>
	<path class="st24" d="M253.4,175.8l4.7-3.2c0,0-12.3-20.3-11.1-37.8c0.7-9.2-14.5-22.8-18.5-20.7c-0.2-0.1-13.4,0.3-14.6,30.4
		l-2.8,35.3l14.3,12.6c0,0,9-15.4,20.4-8.6c11.4,6.8,7.1,3.9,7.1,3.9S253.4,179,253.4,175.8z"/>
	<path class="st25" d="M201.9,176.6c0,0-0.1,33.6,3.3,40.7c3.4,7.1,1.9,49.6,1.9,49.6l39.3,1.2c0,0,5-39.6,5-50.4
		c0-10.8,4-41.2,4-41.2S228.6,169.6,201.9,176.6z"/>
	<path class="st10" d="M240.2,152.7c0.6,0.6-1.8,16.7,0.5,21.5c0,0-6.3,34.8-10.5,35.3c-3.7,0.4-5.7-29.1-6.4-32.5
		c-1-4.5,1.2-27.2,1.2-27.2L240.2,152.7z"/>
	<path class="st9" d="M240,159.7c-5.6,5.1-11.2,2.7-15.5-3.7c0.1-3.2,0.5-6.2,0.5-6.3l15.2,3C240.4,152.9,240.2,155.9,240,159.7z"/>
	<path class="st10" d="M238,115.3c0,0,6.9,1.3,7.7,7.2c0.8,5.9,2,10.9,0.8,17.8c-1.2,6.9-5.3,16.1-12,17.6
		c-6.8,1.5-13.8-9.7-13.8-15.8c0-6.1-2.5-16.3,2.1-22.6C227.4,113.3,238,115.3,238,115.3z"/>
	<g>
		<path class="st26" d="M230.2,147.2c3.6,1.6,9,1.6,9,1.6s-0.4,0.7-1,1.5c-1.6-0.1-4.7-0.4-7.2-1.3
			C230.4,148.1,230.2,147.2,230.2,147.2z"/>
		<path class="st27" d="M230.9,149.1c2.5,0.9,5.6,1.2,7.2,1.3C235.6,153.5,232.8,152.7,230.9,149.1z"/>
	</g>
	<path class="st9" d="M238,115.3c0,0,6.9,1.3,7.7,7.2c0.7,5.4,1.8,9.9,1.1,15.9c-1.1-0.8-2.7-1.5-4.9-2.2
		c-6.1-2-12.3-11.3-13.2-18.3C228.6,112,238,115.3,238,115.3z"/>
	<g>
		<path class="st28" d="M238,143.2c-0.2-1.9-0.3-3.8-0.3-5.7c0.4,2.4,0.5,4.2,0.7,5.9c-1,0.3-2.2,0.8-3.7,0.3
			C235.8,144,237,143.6,238,143.2z"/>
	</g>
	<path class="st28" d="M234.3,137.4c-0.3-1.1-1.3-2.1-2.5-2.5c-2.3-0.6-3.6,2.7-5.2,2.6c1.1,0.6,2.9-1.3,4.1-1.8
		c0.7-0.3,1.3-0.1,1.9,0.2C233.2,136.3,233.8,136.8,234.3,137.4z"/>
	<path class="st28" d="M230.2,136.4c0,0.7,0.5,1.2,1.1,1.2c0.6,0,1.1-0.6,1.1-1.2c0-0.7-0.5-1.2-1.1-1.2
		C230.7,135.1,230.2,135.7,230.2,136.4z"/>
	<path class="st28" d="M239.3,138.1c0.4-1.1,1.4-2.1,2.7-2.4c2.3-0.5,3.5,2.8,5.1,2.9c-1.1,0.5-2.8-1.5-4-2
		c-0.7-0.3-1.2-0.1-1.9,0.1C240.4,137,239.8,137.5,239.3,138.1z"/>
	<path class="st28" d="M243.4,137.3c0,0.7-0.5,1.2-1.2,1.2c-0.6,0-1.1-0.6-1-1.3c0-0.7,0.5-1.2,1.2-1.2
		C243,136,243.5,136.6,243.4,137.3z"/>
	<path class="st28" d="M235.1,132.1c0.2-0.2-1.7-2.1-4.1-2.4c-2.4-0.2-4.9,2.4-4.9,2.4s3.5-2.1,5-1.4
		C232.5,131.4,233.7,133,235.1,132.1z"/>
	<path class="st9" d="M231.9,141.8c-0.3,0.9-2,1.2-3.7,0.6c-1.7-0.6-2.9-1.8-2.6-2.7c0.3-0.9,2-1.2,3.7-0.6
		C231,139.7,232.2,140.9,231.9,141.8z"/>
	<path class="st9" d="M245.9,141.4c0.1,0.9-1,1.7-2.5,2c-1.5,0.2-2.9-0.3-3-1.1c-0.1-0.9,1-1.7,2.5-2
		C244.5,140,245.8,140.5,245.9,141.4z"/>
	<path class="st29" d="M212,264.6l-7.4,3.5c0,0-8.4,9.3-10.2,25.7c-1.9,16.4,20.4,24.4,20.4,24.4l43.9-3.1c0,0,16.2-44.5-10.7-49.9
		C222.1,260.1,212,264.6,212,264.6z"/>
	<path class="st30" d="M236.8,289.1c0,0,0.2,7.8,0.7,7.9c3.7,1.5,19.9-0.4,21.6,8.9c2,10.3-30.8,85.5-28.6,96.6
		c2.2,11.1,5.1,20.8,6.9,22.5c1.8,1.8,1.8,3.3,0.3,4.8c-1.5,1.5-8.1-0.2-10-2.1c-1.9-1.9-4.1-16.2-7.4-19.5
		c-3.3-3.3-4.6-5.4-0.8-13.3c3.9-7.9,13.9-69,15.2-75.4c1.2-6.3-0.8-9.2-0.8-9.2l-15.3-9.7L236.8,289.1z"/>
	<path class="st10" d="M249.1,282.3c0,0-5.7-3.9-17.2,0c-11.5,3.9-19.2,13.5-20.4,18c-1.2,4.5-6.3,91.6-13.2,105.8
		c-6.8,14.2-7.2,15.1-10.2,18.1c-3,3-1.6,10.4,0,12c1.6,1.6,14.2-1.7,15.7-6.6c1.4-5,4.5-16.5,5.8-20c1.2-3.5,10-36.7,18.3-52.4
		c8.3-15.7,11-50.4,11-53.3c0-2.9,14.6-4,14.6-4S256.7,284,249.1,282.3z"/>
	<path class="st31" d="M255.3,176.5c0,0,5.3,3.1,6.1,7c3,15.8,5.7,55.9,4.4,66c-1.5,12.7-6.5,12.7-6.5,12.7l-59.1-7.1l2.5-15.8
		c0,0,40.2,2.5,44.3,2.5c4,0,4.3-30.5,4.3-30.5L255.3,176.5z"/>
	<path class="st32" d="M201.9,176.6c0,0-14-0.1-17.1,17.8c-3.1,18-1.2,67.8,5.3,67.8c6.5,0,42.4-20.8,47.4-20.8l0,0
		c-1.3-0.3-2.3-1.4-2.6-2.7l-1.7-9.6c0,0-27.9,0.3-32.9,5.3c0,0,5.3-19.5,5.3-26.6C205.5,200.6,210.6,176.6,201.9,176.6z"/>
	<path class="st10" d="M249.7,234.8c0,0-15.7-5.2-16.1-2.8c-1.1,6.5,2.5,9.5,2.5,9.5s10.6,1.6,12.3-0.1
		C250.2,239.7,249.7,234.8,249.7,234.8z"/>
	<path class="st9" d="M383.1,235.9l-0.8,25.3c0,0,12,2.3,15.3,1c1.8-0.7,2.2-13.3,1.6-27.8C392.9,233.8,389,233.8,383.1,235.9z"/>
	<path class="st33" d="M399.2,234.4c-0.5-11.7-1.5-24.6-2.9-33.7c-3.1-20.4-15.5-31-15.5-31l-0.3,62.9l0.3,4.2
		C386.6,234.6,392.9,233.8,399.2,234.4z"/>
	<path class="st34" d="M336.3,170.9c0,8.3,1.4,49.4,3.9,62.6c2.5,13.2-17.3,36-17.3,47.1c0,11.1,14.4,27.2,14.4,27.2h48.3
		c0,0,14.9-27,9.5-39.7c-5.4-12.7-12.8-3.2-9.1-21.4c3.7-18.2,4.1-43,2-60.4c-2.1-17.3-11.4-22.6-27.5-22.6
		C344.4,163.8,336.3,162.6,336.3,170.9z"/>
	<path class="st35" d="M380.5,272.9c0,0-22.7-7-33.6,3.9c-10.9,10.9-9.5,30.9-9.5,30.9h48.3C385.6,307.8,401.3,285.7,380.5,272.9z"
		/>
	<path class="st9" d="M370.4,287.5c-3.4-8.3-7.1-9.8-10.2-9.8c-5.6,0-14.5,3.1-18.4,12.9c-4.1,10.4-19.7,73.5-22.5,85.2
		c-2,8.3-5.8,14.1-9.9,18.8c-8.6,12.9-6.1,21.2-0.3,27.4c0,0.8,6.2,2.4,13.2-17c1.6-4.3,2.3-7,4.1-16.4
		C328.4,379.2,373.8,295.7,370.4,287.5z"/>
	<path class="st36" d="M321.7,407.1c-2.3,1.4-7.8,4.8-10,4.8c-2.1,0-5.1-6.3-6.3-9.3c-3.2,8.8-0.6,15.3,3.9,20.1
		C310.1,423.7,315,424.2,321.7,407.1z"/>
	<path class="st37" d="M393.4,292.3c0.2-9-5.4-10.9-9.8-11.7c-5.5-1-12.8,5.4-18.8,14.7c-6,9.4-19.7,73.5-22.5,85.2
		c-2,8.3-5.8,14.1-9.9,18.8c-8.6,12.9-6.1,21.4-0.3,27.5c0,0.8,6.2,2.2,13.2-17.1c1.6-4.3,2.3-7,4.1-16.4
		C351.4,384.1,393.2,301.3,393.4,292.3z"/>
	<path class="st38" d="M343.5,414.6c-2.7,0.9-5.6,1.5-7.8,1.2c-4.4-0.7-5.2-8.1-5.2-13.1c-6.1,11.2-3.6,19.2,1.8,24.8
		C333.2,428.1,337.4,429,343.5,414.6z"/>
	<path class="st39" d="M366.4,237.2l10.9,20.2c0.1,0.2,0,0.4-0.1,0.4c-0.2,0.1-0.3,0-0.4-0.1l-11.6-19.8c-0.2-0.3-0.1-0.8,0.3-1
		C365.8,236.8,366.2,236.9,366.4,237.2C366.4,237.2,366.4,237.2,366.4,237.2z"/>
	<path class="st10" d="M372,243.8c-2.4-2.4-6,0.8-9.3,1.9c-3.3,1-34.2,0.8-38.6-0.2c-1.6-0.4-0.9-5.3,0.8-12
		c-5-1.7-10.5-2.1-15.6-1.5c-1.7,16.3-2.2,30.7,0,32.1c5,3.3,46.1-10.1,50.3-10.1s2.1,1.9,8.3,1.9c3.6,0,6.2-0.7,7.7-1.2
		c0.9-0.3,1.3-1.3,1-2.2C375.6,250.1,373.7,245.5,372,243.8z"/>
	<path class="st9" d="M324.3,235.9c0.2-0.8,0.4-1.6,0.6-2.4c-5-1.7-10.5-2.1-15.6-1.5c-0.2,2-0.4,4-0.6,6
		C311.8,237.4,319.4,236,324.3,235.9z"/>
	<path class="st40" d="M324.9,233.5c5.1-11.2,13.5-30,14.1-37.6c1-12-1.6-30.2-1.6-30.2s-14.1,8.7-18.6,18.8
		c-2.5,5.5-10.2,29.2-12.2,48.9C311.8,232.9,319.9,231.8,324.9,233.5z"/>
	<path class="st41" d="M356.3,260.5H386C386,260.5,365.6,253.9,356.3,260.5z"/>
	<path class="st42" d="M414.5,260.5H386c0,0,11-2.3,18.4-2.3C411.8,258.2,414.5,260.5,414.5,260.5z"/>
	<path class="st42" d="M409.4,251.4c0,0-13.9-0.4-23.4,9.2c0,0,4.5-3.3,12-5.2c7.4-1.9,12.5-1.8,12.5-1.8L409.4,251.4z"/>
	<polygon class="st43" points="354.4,260.5 386,260.5 356.1,259.8 	"/>
	<path class="st9" d="M410.8,227.5c-2.2-14.4-0.4-31.2-0.4-31.2s3.8-3.4,9-2c5.2,1.4,7.9,2.2,7.4,0.8c-0.5-1.5-7.2-3.8-7.2-3.8
		s6.5-0.1,9.7,1.6c3.3,1.7,4.1-1.6-5.1-3.2c-9.2-1.6-6.2-2.5-4.6-3c1.5-0.5,10.7,1.9,13.1,0.1c2.2-1.6-12.4-3.2-16.7-2.7
		c18.8-5.3,12.9-7.6-4.9-1.5c-5.1,1.7-9.7,9.4-9.8,9.5c-0.5,0.6-5.5,23.9-5.8,41.6C400.4,231.4,406.3,230.3,410.8,227.5z"/>
	<path class="st44" d="M398.4,198.2c-1.4,1.4-17.3,60.8-8.2,63.1c9.1,2.4,20.1-9,20.1-9l2.2-49L398.4,198.2z"/>
	<path class="st10" d="M524.2,195.3c1.9-4.2,9.7-5.3,12.2-6.1c2.5-0.8,4.8-5.8,6.5-6.3c1.7-0.5,1.2,5.1-1.4,6.5
		c-2.5,1.5,0.7,3.6,2.7,3.7c2,0,9.1-0.5,10.7-4.2c1.6-3.7,4.7-5.9,5.1-4.6c0.4,1.3-3.8,6.9-3.8,6.9s6.8-6.2,7.2-4.6
		c0.5,1.5-5.7,6-5.7,6s4.2-1.9,5.4-1.2c1.2,0.7-9.9,7.6-12.1,8.3c-2.2,0.7-10.8,0.2-15.1-0.2c-1.8-0.2-2.7,8.6-5.7,20.1
		c-1.6-2.8-9.2-5.2-11.4-7.5C522.5,204,523.5,197,524.2,195.3z"/>
	<path class="st44" d="M519,203.8l-14,58.8c0,0,13.1,1.9,18.6,0c5.5-1.9,12.4-40.9,12.4-57.9L519,203.8z"/>
	<polygon class="st45" points="627.3,312.2 598.2,317.8 579.7,310.5 598.2,291.3 	"/>
	<path class="st46" d="M641.3,181.5c0,0-4.7,2.9-10.4,16.7c-5.7,13.8-5.7,42.5-11.2,45.1c-4.9,2.3-43.9,7.1-53.6,8.2
		c-1.4,0.2-2.6,0.9-3.3,2.1l-5,8l26.2,0.9c0,0,29.8,14.8,37.4,9.8c7.6-5.1,29.7-47,32.6-59.3C656.7,200.6,641.3,181.5,641.3,181.5z"
		/>
	<path class="st47" d="M583.9,239.3c-1.2,0-13.6-2.9-13.6-2.9l-2.9,12.8l12.8,5.4L583.9,239.3z"/>
	<path class="st46" d="M559.1,411.8c0,0-4.4,13.2-16.5,16.5c-4.6,1.2-25.5,11.6-21.6,11.6c1.5,0,44.9,0.1,44.9,0.1s3.2-5.7,2-10.9
		c-1.2-5.2,4.7-17.3,4.7-17.3H559.1z"/>
	<g>
		<path class="st48" d="M77,107.9c0,0,3.6,21.8,15.1,36.5c8.6,11,26.5,23.2,26.5,23.2l-10.1,11.1l-28-23.1L77,107.9z"/>
		<polygon class="st49" points="61.7,87.5 39.3,87.5 40,161.3 69.8,163.3 		"/>
		<path class="st49" d="M86.9,441c12.6,0,12.3,5.2,12.3,5.2h-37c0,0,1.8-16,2.1-19.7H73C74,431,77.2,441,86.9,441z"/>
		<path class="st49" d="M25,442.9c11.5,0,13.9-13.9,14.2-16.4h8.3c0,0.7,0,1.1,0,1.2c0,1.7,2.2,20.4,2.2,20.4s-9.2,0-15.4,0
			c-6.2,0-21.6,0-21.6,0S12.4,442.9,25,442.9z"/>
		<path class="st50" d="M28.3,342.4l-11.8-99.8l3.3-29.5h65l0.5,26l6.8,101.4c0,0-17,84.5-16.7,85.9H63.2c0-0.3,3.5-92.6,3.5-92.6
			l-14-82.2l-5.5,86.3c0,0,2.5,77.8,2.5,88.5H38.1C38.2,426.2,28.3,342.4,28.3,342.4z"/>
		<path class="st51" d="M19.4,216.9l0.4-3.9h65l0.1,3.4l-13.6,4.6c-11.1,3.8-23,4.1-34.2,0.9L19.4,216.9z"/>
		<path class="st52" d="M15.4,107.1c7.1-7.9,23.4-20.6,41.4-17.5l18.8,8.4l5.5,40.7l5,77.4L19,216.8l-6.4-75.4
			C12.6,141.4,8.3,115.1,15.4,107.1z"/>
		<path class="st10" d="M59.1,71.3c0,0,0.2,15.9,1.7,24c0.6,3.1-0.8,6.3-3.5,7.5c-2,0.8-4.6,1.3-7.8,0.7c-8.5-1.6-8.7-11.1-8.7-11.1
			l2.9-29L59.1,71.3z"/>
		<path class="st9" d="M43.6,63.5l15.5,7.9c0,0,0.1,5.9,0.5,12.3c-4,0.2-9.1-2.1-14.5-9c-0.8-1-1.5-2-2.2-3.1L43.6,63.5z"/>
		<path class="st10" d="M58.1,30.6c0,0,5.3,4.5,7.6,12.1c2.3,7.6,4.3,13,4.3,13l-2.4,1.6c0,0,1.9,10.6,0.4,14.2
			c-2.3,5.5-12,9.9-22.9-2.4c-11-12.3-11.9-23.2-10-28.5C36.9,35.3,53.8,27.9,58.1,30.6z"/>
		<path class="st53" d="M41.6,42.4c0,0,4.9-4.5,11.9-2.6c7,1.9,9.4-1,8-2.6c0,0,6.2,0.2,8.5-5.5c2.3-5.6,1.7-22.7-9.2-19.5
			c-10.9,3.2-8.7,10.9-8.7,10.9s-3.5-3.7-6.8-1.8c-3.3,1.9-2.9,4.7-2.9,4.7s-3,6.3-7.2,7.1c-4.2,0.8-3.7,10.1-3.7,10.1
			s-2.4,1.9-0.7,8.7c1.7,6.8,11.8,17.2,11.8,20.5c0,0,2.5-4.2,0.5-10.8c-2-6.6-2-10.5,0.1-10.5C45.5,51.2,41.6,42.4,41.6,42.4z"/>
		<path class="st10" d="M44.7,55.6c0,0-0.7-5.6-2.3-5.6c-1.6,0-3,0.6-2.6,3.7c0.4,3.1,2,6.6,4,5.2C45.9,57.5,44.7,55.6,44.7,55.6z"
			/>
		<path class="st53" d="M26.3,42.8c0.1-0.5,0.5-1,1-1.2c1.5-0.7,3.4,0.8,4.7,1.8l0.2-0.3c-0.9-1-1.8-2-3.1-2.6
			c-1.9-0.9-3.6,0-4.3,1.7L26.3,42.8z"/>
		<path class="st53" d="M26.2,50c-0.1-0.8-0.1-1.7,0-2.6c0.9-4.2,5.5-3.8,5.7-3.9v-0.3c-0.1,0.1-6.5-1.3-7.5,5.4
			c-0.1,0.6-0.1,1.1-0.1,1.8L26.2,50z"/>
		<path class="st54" d="M59.3,47.4c0,1.4,0.5,2.5,1.2,2.5s1.2-1.1,1.2-2.5c0-1.4-0.5-2.5-1.2-2.5S59.3,46,59.3,47.4z"/>
		<path class="st54" d="M56.6,44.9c2.7-2.4,5.5-0.9,5.6-0.8l0.5-1.8c-0.1-0.1-3.2-1.8-6.2,1L56.6,44.9z"/>
		<path class="st55" d="M64,90.3l5,150.3h31.2l-9.2-68.3l-6-41.5c0,0-2.9-27.9-9.3-32.9C69.3,93,64,90.3,64,90.3z"/>
		<path class="st9" d="M43.7,53.4c0,0-0.9-1.9-1.7-1.6c-0.8,0.3-1,4,0.4,5.6C43.9,59,45.1,56.4,43.7,53.4z"/>
		<path class="st55" d="M38.9,89.5l3.3,151.1H8.9c0,0-1.3-119.8,2.4-132.3C15,95.8,38.9,89.5,38.9,89.5z"/>
		<polygon class="st56" points="76.1,95.9 61.7,87.5 66.4,162.2 74.2,119.9 71.4,117.9 		"/>
		<polygon class="st56" points="40.5,161.5 39.3,87.5 26.5,93.3 33.5,117.9 31.7,119.3 		"/>
		<polygon class="st57" points="99.2,183.5 145.4,148.1 96.5,143.6 59.4,183.5 		"/>
		<path class="st10" d="M73.4,168.5c0,0-5,1.1-6.9,3.2c-2.4,2.6-8,6.8-10.4,6.8c-2.4,0-12.4,1-12.4,1L42,190.8
			c0,0,37.6-8.8,39.4-10.7c1.8-1.9-8.8,1.4-8.8,0.6c0-0.9,12.7-1.8,12.1-4c-0.7-2.2-11.8,2.9-12.7,1.9c-1-1.1,13.4-2.9,13.4-5.2
			c0-2.3-14.3,3.3-14.3,3.3s-0.3-1.2,3.6-3c3.9-1.9,7.6-3.4,6.8-4.3c-0.9-0.9-10.8,5-12.1,3.6L73.4,168.5z"/>
		<path class="st56" d="M20.5,105.4c0,0,5.5,10.2,4.4,24.9c-1.1,14.7-3,37.2,0.1,44.6c3.1,7.4,25.5,0,25.5,0v17.4
			c0,0-32.5,13.5-41.9,9.1c-9.4-4.4-8.5-42.4-8.5-61C0,121.7,14.5,92,20.5,105.4z"/>
		<path class="st58" d="M20.5,105.4c2.7,5.9,4.5,14.7,3.9,23.8c-1,13.7-4.2,43.4,1.6,47.9c5.6,3.5,18.3,0,24.4-2.2
			c-5.9,1.6-22.8,5.6-25-0.3c-1.9-4.7-1.6-16-1.4-21c0.7-21.7,3.3-29.4-1.2-42.6C22.2,109.1,21.5,107.2,20.5,105.4z"/>
		<path class="st59" d="M65.4,66L65,68.8c-5.4-0.6-8.1-5.3-8.1-5.3C60.1,66.7,65.4,66,65.4,66z"/>
		<path class="st10" d="M112.8,168c0,0,0.7,0.8,1.7,3.3c1,2.4-1.8,4.9-2.3,5.4c-1,1-2.9,2.4-4.1,3c-1.2,0.7-1.9,1-3,1.3
			c-1.7,0.4-5.4-5.6-4.8-6.2c0.3-0.4,0.8-0.7,1.1-0.6c0.4,0.1,4.5,3.4,4.5,3.4s-3.7-4.7-3.3-6.1c0.4-1.4,1.2-1.2,1.5-0.9
			c0.3,0.4,5,4.8,5,4.8s-3.2-5.7-2.9-6.6c0.3-0.9,1.6-1.6,3,0.7c0.8,1.3,3,3.4,3,3.4s-1.8-4.3-1.4-5.6
			C111.2,166,112.8,168,112.8,168z"/>
	</g>
	<path class="st60" d="M466.3,428.9c0,0,0.1,0.6,0.4,1.5c0.9,2.7,3.3,8.1,8.9,9.5c7.4,1.8,13.3-0.2,14.7,1.2
		c1.3,1.3,1.8,5.5,1.8,5.5l-44.7,2.1l2.6-18.3L466.3,428.9z"/>
	<polygon class="st60" points="429.9,318.9 447.1,434.7 470,431.1 466.3,318.1 	"/>
	<path class="st61" d="M444.8,424.8c0,0-5.7,4.8-5.7,9.9l-19.6,14.5h-7c0,0,14.5-18.1,17.4-22.6c2.9-4.5,3-9,3-9L444.8,424.8z"/>
	<path class="st62" d="M506.9,316.3C500.5,297.1,483,306,483,306c-10.9,2.1-27.2,39.8-29.5,51.6c-1.6,8.5-17.8,47.1-26.6,68
		c6.1-3.3,14.3-1.4,17.8,4.4C463.4,398.9,509,322.6,506.9,316.3z"/>
	<path class="st63" d="M431.9,427.8c0,0,5.4,1.6,7.1,5.1c1.7,3.6-7.1,10.5-7.1,13.6c0,3.1,2.3,5.8,0,7c-2.3,1.2-21.4,1.4-20.3-2.5
		c1-3.8,8.5-8.1,11.6-12.9C426.2,433.4,428.9,426.6,431.9,427.8z"/>
	<path class="st60" d="M485.6,312.2c0,0,28.8-8.3,19.4,11.3c-1.8,3.8-84.7,9.5-84.7,2.6c0-6.9,5.3-13.9,5.3-13.9H485.6z"/>
	<path class="st64" d="M422.1,187.9c0,0,9.8-4,21.6-5c6.5-0.6,13,1.5,20.3,1.5c20.6,0,40.5,5.5,42.7,15.5
		c2.2,10.1-25,107.9-18.8,114.1c6.2,6.2-54.7,10.1-62.3,2.5C418,308.8,399.9,196.5,422.1,187.9z"/>
	<path class="st65" d="M449.9,164.2l-6.2,20.8c0,0,16.2,6.4,27,0l-3.4-23.1L449.9,164.2z"/>
	<path class="st64" d="M422.1,187.9c0,0-17.3,23.3-21.1,34.4c-3.7,11.1-13.9,30-13,35c0.9,4.9,6.9,9.8,17,7.4
		c10.1-2.4,9.4-12.2,9.4-12.2L422.1,187.9z"/>
	<path class="st64" d="M506.2,198.2c0,0,21.8,60,17.5,64.3c-4.3,4.3-18.6,0-18.6,0l-15.7-30.7L506.2,198.2z"/>
	<path class="st10" d="M637.3,113.1c0,0-8.1,10.6-9.3,17.9c-1.3,7.4-2.8,19.3-2.8,19.3h3.3c0,0,2.7,6.6,2.7,11c0,4.4,7,1.6,11,1.6
		c4,0,13-3.5,16.5-16.1C662.3,134.2,668.7,111.6,637.3,113.1z"/>
	<polygon class="st66" points="646.8,173.2 641.9,176.9 640.2,183.6 647.2,180.4 	"/>
	<path class="st10" d="M655.1,146.6l12.3,28.2c0,0-23.5,7.8-22.3,6.6c1.2-1.2-1.5-22-1.5-22L655.1,146.6z"/>
	<path class="st67" d="M626.4,105.4c-0.4,0.6-6.7,13.6,4.2,18.5c11,4.9,13.7-2.2,16.6,2.2c2.9,4.4-2.5,11.5-0.2,15.5l3.7,0.7
		c0,0,0.7-2.2,2.2-2.2c1.5,0,1.9,11.1,4.2,11.1c2.4,0,6.9-9.4,9.1-13.8c2.2-4.4,6.8-19.2-1.6-23.1c-8.4-3.8-12.1-0.9-12.1-4.6
		c0-3.7-3.7,0.2-3.7,0.2s-2-2.7-0.7-5.9c1.3-3.1-9-4.2-11.4,2C634.4,112.4,630.4,98.6,626.4,105.4z"/>
	<g>
		<g>
			<rect x="662" y="357.5" class="st3" width="10.6" height="78.3"/>
		</g>
		<g>
			<polygon class="st4" points="674.2,436.5 660.5,436.5 660.5,424.7 660.5,415.2 674.2,415.2 			"/>
			<polygon class="st4" points="609.9,450.7 660.5,424.7 660.5,436.5 624.2,450.7 624.2,453.3 609.9,453.3 			"/>
			<polygon class="st4" points="724.9,450.7 674.2,424.7 674.2,436.5 710.6,450.7 710.6,453.3 724.9,453.3 			"/>
			<polygon class="st4" points="662.8,424.7 662.8,453.3 659.4,453.3 659.4,455.3 674.2,455.3 674.2,453.3 671.1,453.3 672.1,424.7 
							"/>
		</g>
	</g>
	<rect x="660.5" y="341" class="st2" width="13.6" height="27.4"/>
	<path class="st45" d="M521.9,362c0,0-9.9,9.9-13.2,13.2c-3.3,3.3-21.7,5-18.1,8.7c3.7,3.7,13.1,8.4,17.4,8.4
		c4.3,0,20.8-3.7,20.8-3.7s1.9-16.5,4.1-18.8L521.9,362z"/>
	<path class="st46" d="M580.2,277c-14,0-63.1,80.5-63.1,80.5l4.9,4.5l13.2,9.8c2.2-2.2,53.6-65.9,53.6-65.9s19.9,8.1,35.2,8.1
		c15.3,0,33.6-31.6,33.6-31.6C655.7,280.8,594.2,277,580.2,277z"/>
	<path class="st47" d="M681.8,276.3c0-0.3,0.1-0.6,0.1-0.9c1-12,4.3-106.9-12.5-106.9c0,0-19.3,3.5-31.6,19.1
		c-2.1,2.6-2.4,5-3.4,8.6c-6.1,23.9-10.2,68.3-9.6,85.1C643.8,288.8,664.9,288.3,681.8,276.3z"/>
	<path class="st68" d="M663,160.4c-1.7,0-18.5,16.3-18.5,16.3l-1.5,9.4l26.4-12.3L663,160.4z"/>
	<polygon class="st69" points="644.3,177.8 640.2,179.5 635.9,188.4 638.4,187.6 643.4,183.9 	"/>
	<path class="st1" d="M638.4,187.6c0,0-10,50.7-12.3,95.2l-6.5,5.8c0,0,0.8-7,0.8-17.1c0-10.1,10.5-75.8,15.5-83.1L638.4,187.6z"/>
	<path class="st70" d="M669.4,168.5c0,0-5,0.9-11.6,3.9c-1.8,7.5-12.2,24.7-16.8,43.1c-3.4,13.8-11.5,31.7-12.8,43.1
		c-1.1,9.8-3,18.3-3.6,24.1c-1.6,13.9-7.9,37.6-7.9,37.6l60-8.2c0,0,4.1-24.8,5.2-36.8C682.9,263.4,686.2,168.5,669.4,168.5z"/>
	<path class="st32" d="M661.7,299.7l-11.7-1.3c-4.5-0.5-7.8-4.6-7.2-9.1l2.6-22.6l28,3.2l-2.6,22.6
		C670.3,297,666.2,300.2,661.7,299.7z"/>
	<path class="st71" d="M661,166l-16,13.6l-16.1,77.8c0,0,18.4-32.3,18-35.6c-0.5-3.3-3.3-6.3-3.3-6.3S661,171.8,661,166z"/>
	<polygon class="st71" points="666.4,162.2 661,166 659,174 671.7,169.2 	"/>
	<path class="st2" d="M674.4,341.9h-16.2c-2.6,0-4.7-2.1-4.7-4.7v-14.1H679v14.1C679,339.8,676.9,341.9,674.4,341.9z"/>
	<g>
		<path class="st6" d="M687.7,264.5c0,0-58.9-0.4-60.8,3.7c-1.9,4.1,0.9,52.2,0.9,52.2l7-1.3c0,0-2.9-40.8,1.4-45.2
			c4.3-4.3,52,2.2,52.6,1.6C689.5,275,687.7,264.5,687.7,264.5z"/>
		<path class="st71" d="M626.2,266.9c-3.1,3.3,0.6,39,1.2,43.5c0.4-20.2-0.2-37.1,0.8-41.6c3.3-2,27.8-2.8,47.8-4.4
			C669.1,264.1,630.8,262.7,626.2,266.9z M628.2,268.8C628.2,268.8,628.2,268.8,628.2,268.8C628.2,268.8,628.2,268.8,628.2,268.8z"
			/>
		<path class="st72" d="M714.9,323.5H610.1l0,0c0-6.2,5-11.3,11.3-11.3h93.5V323.5z"/>
		<path class="st72" d="M705,191.4c0,0-24.8,11.9-24.8,51.3c0,39.5,14.4,69.4,14.4,69.4h20.2c0,0-26-55.6-14-79.3
			C712.8,209.2,733.1,196,705,191.4z"/>
		<path class="st73" d="M700.9,232.9c11.4-22.6,30.4-35.7,7.6-40.8c16.8,5.7-0.6,18.5-11.3,39.8c-12,23.7,14,79.3,14,79.3v11.3
			H610.1c0,0.3,0,0.7,0,1h104.8v-11.3C714.9,312.2,688.9,256.6,700.9,232.9z"/>
	</g>
	<path class="st32" d="M663.8,176.1c-7.5,1.8-16.4,7.3-21.3,22.1c-4.9,14.9-9.9,35.5-16.5,38.6c-6.6,3-49.5-0.4-49.5-0.4l-1.1,19.3
		c0,0,46.9,13.8,59.4,12.4c12.6-1.4,34.6-46,41.3-62.1C689,174.9,671.7,174.3,663.8,176.1z"/>
	<path class="st74" d="M663.8,176.1c-21.1,6.5-20.2,28.5-29.5,51.1c-1.5,3.5-4.3,9.5-7.9,10.8c-0.8,0-5.3,4-50-1.6
		c15,0.3,45.6,1.4,49.5-1.2c6-4.1,11.2-26,15.8-38.4c1.9-4.9,4.5-9.7,8.3-13.5C653.9,179.7,658.7,177,663.8,176.1z"/>
	<path class="st70" d="M597.2,328.2c-5.7,27.3-23.4,91-23.4,91l-21.5-6.2c0,0,13.5-102.2,24.3-113.1
		C587.6,289,602.9,300.9,597.2,328.2z"/>
	<path class="st75" d="M566.4,253.5c0,0,5.9-0.9,9,2.2c3.1,3.1,4.3,6.7,4.3,6.7l-22-0.7C557.7,261.7,561.1,253.3,566.4,253.5z"/>
	<path class="st47" d="M557.7,261.7c0,0,3.4-8.4,8.7-8.2c0,0,5.9-0.9,9,2.2c0.5,0.5,1,1.1,1.5,1.6c-0.5-0.9-1.2-1.9-2-2.8
		c-3.1-3.7-7-2.8-9-2.6c-5.2,0.5-8.7,9.9-8.7,9.9L557.7,261.7z"/>
	<path class="st10" d="M566.1,253.5c0,0-3-0.3-4.1,0.8c-1.1,1.1-1.8,1.8-2.1,2.2c-0.3,0.3-0.1,4.6,4.9,5.7c5,1.1,4.1-1.3,5.5-0.7
		c1.4,0.6,3,1.5,3.8,0.8c0.7-0.7,1.7,1,2.7,0c1-1-1.8-7.4-3.4-8.9c-1.6-1.6-2.8-1-4.1-1C567.9,252.4,566.1,253.5,566.1,253.5z"/>
	<rect x="576.3" y="272.2" class="st1" width="5.8" height="170.5"/>
	<rect x="120.4" y="271.2" class="st1" width="5.8" height="170.5"/>
	<rect x="174.4" y="266.9" class="st1" width="5.8" height="170.5"/>
	<linearGradient id="SVGID_3_" gradientUnits="userSpaceOnUse" x1="350.4976" y1="320.2023" x2="353.1498" y2="265.3904">
		<stop  offset="0" style="stop-color:#671A54"/>
		<stop  offset="1" style="stop-color:#B8144F"/>
	</linearGradient>
	<rect x="103.9" y="260.5" class="st76" width="498.3" height="11.8"/>
	<path class="st7" d="M478.6,329.7h-65.4l-18-97.9c-3.2-17.6,12.2-33.5,32.4-33.5h36.5c20.2,0,21.8,23.6,20.8,42.6l-2.7,38.7
		L478.6,329.7z"/>
	<path class="st77" d="M402,240.2c-3.2-17.6,12.2-33.5,32.4-33.5h36.5c4.3,0,7.7,1,10.4,2.9c-3-6.7-8.3-11.3-17.2-11.3h-36.5
		c-20.2,0-35.7,16-32.4,33.5l18,97.9h5.2L402,240.2z"/>
	<g>
		<g>
			<g>
				<rect x="450" y="345.8" class="st78" width="10.6" height="102.5"/>
			</g>
			<g>
				<polygon class="st79" points="462.2,449.1 448.5,449.1 448.5,435.6 448.5,424.7 462.2,424.7 				"/>
				<polygon class="st79" points="397.8,465.2 448.5,435.6 448.5,449.1 412.2,465.2 412.2,468.2 397.8,468.2 				"/>
				<polygon class="st79" points="512.9,465.2 462.2,435.6 462.2,449.1 498.5,465.2 498.5,468.2 512.9,468.2 				"/>
				<polygon class="st79" points="450.7,435.6 450.7,468.2 447.3,468.2 447.3,470.5 462.2,470.5 462.2,468.2 459.1,468.2 
					460.1,435.6 				"/>
			</g>
		</g>
		<rect x="448.4" y="336.7" class="st2" width="13.7" height="10.4"/>
	</g>
	<path class="st5" d="M514.4,336.7h-118l0,0c0-7.3,5.9-13.2,13.2-13.2h91.6C508.4,323.5,514.4,329.4,514.4,336.7L514.4,336.7z"/>
	<path class="st44" d="M442.9,178.1c0,0,19,7.5,27.8,0.6l2.6,6.1c0,0-3,5.3-15.2,6.2c-12.2,0.9-18.2-7.7-18.2-7.7L442.9,178.1z"/>
	<path class="st65" d="M445.5,148.6c0,0-4.4-3.3-4.4-0.9c0,2.4-0.5,11.1,3.6,8.7C448.8,154,445.5,148.6,445.5,148.6z"/>
	<path class="st80" d="M450.5,124.5c0,0-8.2-2.7-10.5,5.7c-2.3,8.4,3.8,17,3.8,21.2c0,4.2,2.2,9,6.2,12.9c3.9,3.9,13.1,8,13.1,8
		s10.2-6.3,13.7-13.3c3.5-7,1.4-11.6,2.8-22.1c1.4-10.5-5.8-13.9-8.8-13.9C467.7,122.9,457.2,111.6,450.5,124.5z"/>
	<polygon class="st6" points="517,288.6 482.3,278.2 481.6,287.2 505,292.4 499.3,323.9 506,324.4 	"/>
	<path class="st38" d="M372.7,166.7c0-2.5-2-3.3-4.5-3.9c-8.5-1.9-19.3-2.2-18.6,0.7c1,3.8,9.2,9.1,14.7,9.1c5.5,0,8.1-4.5,8.1-4.5
		L372.7,166.7z"/>
	<path class="st10" d="M366.4,154.7l1.8,20.4c0,0-7.4,3.7-16.6-0.6l3.7-33.4L366.4,154.7z"/>
	<path class="st9" d="M366.4,154.7l0.8,8.8c-0.8,0-1.7-0.3-2.6-0.7c-7.1-3.8-8.1-14.3-8.3-20.3L366.4,154.7z"/>
	<path class="st10" d="M379.2,119.7c0,0,3.3,2.6,4,7.2c0.7,4.6-2.3,9.8-2.3,13.7c0,3.9-7.2,22.4-16.2,18c-9-4.4-8.3-18.5-8.3-21.6
		c0-3.2,4.4-14.1,9.7-16.6C371.4,117.7,379.2,119.7,379.2,119.7z"/>
	<g>
		<path class="st81" d="M374.9,137.8c0,0-0.3-2.2-1.7-3.8c-1.3-1.6-5-1.8-5-1.8s3.5,0.8,4.3,1.9c0.8,1.1,1.2,2.7,1.2,2.7
			L374.9,137.8z"/>
		<path class="st81" d="M376.9,139.4c0,0,1.4-1.3,2.9-1.6c1.5-0.2,2.8,1.8,2.8,1.8s-1.6-1.4-2.6-1.2c-1,0.2-2.1,1.1-2.1,1.1
			L376.9,139.4z"/>
		<path class="st26" d="M366,150c2.7,1.1,4,2.3,7.5,2.1C370.8,153.2,367.6,152,366,150z"/>
		<path class="st81" d="M371.3,139.1c-0.3,0.9-1,1.4-1.6,1.3c-0.6-0.2-0.9-1-0.7-1.9c0.3-0.9,1-1.4,1.6-1.3
			C371.2,137.4,371.5,138.2,371.3,139.1z"/>
		<path class="st82" d="M366,138.1c5.5-3,6.1,0.6,7.4,1.3c-1.1-0.3-2-1.9-3.4-1.9C369,137.4,367.2,137.9,366,138.1z"/>
		<path class="st81" d="M379.7,143.1c-0.3,0.7-0.9,1.1-1.4,0.8c-0.5-0.2-0.6-0.9-0.3-1.6c0.3-0.7,0.9-1.1,1.3-0.8
			C379.8,141.7,379.9,142.4,379.7,143.1z"/>
		<path class="st82" d="M376,142.8c3.9-3.7,5.1-0.3,6.3,0.2c-1-0.1-2-1.5-3.1-1.4C378.3,141.7,376.9,142.4,376,142.8z"/>
		<path class="st9" d="M368.1,142.3c-0.4,1.2-1.9,1.8-3.5,1.3c-1.6-0.5-2.6-1.8-2.3-3c0.4-1.2,1.9-1.8,3.5-1.3
			C367.5,139.7,368.5,141.1,368.1,142.3z"/>
		<path class="st81" d="M376.6,141.1c-0.9,2.1-1.8,4.8-2.5,7.1c-0.8,0-1.8-0.2-2.6-0.8c1,1.2,2.8,1.1,2.9,1.2
			C375,146.7,375.9,144.3,376.6,141.1z"/>
	</g>
	<path class="st83" d="M379.2,119.7c0,0,3.3,2.6,4,7.2c0.7,4.6,1.5,13-2.3,13.7c-2.2,0.4-9.9-12.3-7.7-21.5
		C376.5,119,379.2,119.7,379.2,119.7z"/>
	<path class="st40" d="M349.6,163.5l-2.2,10c2.6,4,15.8,24.7,19.2,30.3c2.2,3.5,4.6-19.9,6-37.1C363,169.7,357.6,171.3,349.6,163.5z
		"/>
	<path class="st10" d="M649.8,136.2c0,0-0.2,7.2,1.6,7.2c1.7,0,5.6-4.1,4.9-8.4C655.6,130.6,650.6,131.1,649.8,136.2z"/>
	<path class="st9" d="M651,135.4c0,0-0.9,2.9,0.4,4.2c1.3,1.3,3.8-1.8,2.4-4.2C652.5,133.1,651.3,133.8,651,135.4z"/>
	<path class="st67" d="M632,133.4l-0.3,1.7c0,0,3.1-0.4,4.7,1.3c1.7,1.7,1.9,1.9,1.9,1.9S637.5,134.4,632,133.4z"/>
	<path class="st67" d="M635.3,138.8c0,0.9-0.6,1.6-1.3,1.6c-0.7,0-1.3-0.7-1.3-1.6c0-0.9,0.6-1.6,1.3-1.6
		C634.7,137.2,635.3,137.9,635.3,138.8z"/>
	<path class="st67" d="M631,158.3c0,0-0.6,2.8-0.6,4.5c0,1.6,4.1,3.4,7.7,2.4c3.7-1,8.7-3.5,10-4.7c1.2-1.2,2.2-18.1,2.2-18.1
		l-3.3-0.6c0,0-1.6,11-3,12.4C642.7,155.4,631,158.3,631,158.3z"/>
	<path class="st67" d="M632.7,154.9c1,0,2.1-0.2,2.9-0.7c0.4-0.3,0.7-0.6,1-1c0.2-0.4,0.3-0.9,0.4-1.3l0-0.1c0-0.3,0.3-0.5,0.6-0.5
		c0.3,0,0.5,0.3,0.5,0.6c0,0,0,0.1,0,0.1c-0.2,0.6-0.4,1.1-0.8,1.6c-0.4,0.5-0.9,0.8-1.4,1C634.8,155.1,633.7,155.1,632.7,154.9z"/>
	<path class="st67" d="M621.5,118.6c-0.1,0.6,0.5,1.7,0.9,2.1c1.9,2.5,5.7,2.9,8.2,3.2c-0.3,0-3.7,0.7-6.5-0.1
		c-3-0.8-4.8-2.8-5.4-4.8L621.5,118.6z"/>
	<path class="st84" d="M193.3,430.6c-1.5,0-2.6-5.7-3.1-8.8c-0.6,0.8-1.3,1.5-2.1,2.3c-3,3-1.6,10.4,0,12c1.6,1.6,14.2-1.7,15.7-6.6
		c0.2-0.7,0.4-1.5,0.7-2.5C201.3,428.3,194.9,430.6,193.3,430.6z"/>
	<path class="st84" d="M220,393.2c0,0-4.6,7.6-4.6,11.2c0,3.6,2.3,23.7,2.3,23.7l3.1,0.1c0,0-2.2-13.8-0.3-14.3
		c1.9-0.5,5.1,18.3,5.1,18.3l15.8,1.1c0,0,0.3-5.2-4.6-8.9c-4.8-3.7-5.1-2.5-7.4-10.4C227,406,220,393.2,220,393.2z"/>
	<path class="st30" d="M216.6,303.7c0,0-0.4,5.3,1.2,6.9c1.6,1.6,9.2,0.6,9.2-3.4C227,303.1,218.9,301.3,216.6,303.7z"/>
	<path class="st30" d="M375.1,291.9c-6.2,2.4,1.4,9.3,6.3,8.5C386.3,299.6,382.8,289,375.1,291.9z"/>
	<path class="st30" d="M357.2,289.3c0,0-2.7-2.6-8.3-1.9c-5.6,0.8,4,10.2,8.4,9.2C361.8,295.5,357.2,289.3,357.2,289.3z"/>
	<path class="st30" d="M314.3,255.7c2.3-0.2,4.9-0.2,4.9,1.3c0,2.6-8.2,4.6-8.2,2.4C311,259.3,311.1,256,314.3,255.7z"/>
	<path class="st10" d="M208.7,231.2c0,0-0.8-7.8-1.8-8.9c-1-1.1-9.4-11.5-10.4-10.3c-1,1.1,6.2,9.4,6.2,9.4s-8.6-8.1-9.1-6.2
		c-0.5,1.8,7.9,9.6,7.9,9.6s-8.8-6.7-8.8-5.3c0,0,8.2,8.6,8.5,8.9c0.3,0.3,1,4.6,1,4.6L208.7,231.2z"/>
	<path class="st10" d="M202.2,213c0,0,4.1,1.9,4.1,3.5c0,1.5,1.2,8.7,1.2,8.7l-3.5-1.5l0.7-6.5C204.7,217.2,200.8,213,202.2,213z"/>
	<path class="st85" d="M231.9,110.3c-5,0.6-13-0.7-16.8,7.6c-2.2,4.7-6.7,13.7-6.7,29.7c0,23.9-23,34.4-23,34.4l10.1,4.9l6-4.9
		l-4.1,8.8l16.5,1.7l0.7-11.4l3.4,13l7.7-1.6c0,0-3-39-3.4-53.8c0.1,0.1,0.1,0.1,0.1,0.1s-0.1-1.9-0.1-4.3c0,0,0,0,0,0
		c0-0.7,0-1.5,0-2.2c0-2.3,0.2-4.8,0.5-6.5c0.7-4,2.2-6.1,5.8-7.8c3.6-1.7,16.6,3.2,16.6,3.2C244.9,113.6,236.9,109.7,231.9,110.3z"
		/>
	<path class="st54" d="M238.6,111.7c6.3,1.4,8.3,11.2,13.4,16.3c5.2,5.2,3.9,12.7,1.4,17.6c-2.5,4.9-6.4,1.7-6.4,1.7s2.1,1.2,3.4-3
		c1.3-4.1-1-7.3-8-9.6c-7-2.3-13.7-16.9-13.7-16.9C228.6,115,232.3,110.3,238.6,111.7z"/>
	<path class="st86" d="M247,147.4c2.4,1.4,5.8-4.5,3.3-8.3c-1.8-3-5.7-4.2-8.9-5.5c-5-2.9-9.8-10.8-12.7-15.6
		c2.1,5.8,6.6,13.8,12,17l1.3,0.6c1.3,0.5,5.4,1.6,7.3,4.3c1.6,2.1,0.8,5.3-0.2,6.8C248.7,147.1,247.9,147.7,247,147.4z"/>
	<path class="st10" d="M223.8,139.5c0,0-1.8-7.6-4.7-5.8c-2.9,1.8,0.2,10.3,3,10.3C224.8,144,223.8,139.5,223.8,139.5z"/>
	<path class="st9" d="M221,135.3c0,0,4.3,7,1.4,6.2C219.3,140.7,218.2,134,221,135.3z"/>
	<path class="st87" d="M379.8,120.1c7.2,1.8,10,8.9,6.4,14.3c-0.6,0.9-1.4,1.8-2.5,1.9v-1.6c0.4,0.1,1.2-0.8,1.4-1.1
		C388.7,129,386.5,122.4,379.8,120.1z"/>
	<path class="st81" d="M374.5,115.2c0,0,5.1,0,8.8,3.7c3.7,3.7,2.6,18.4,0,20.6c-2.6,2.2,6.6,4.2,1.1,4.2
		C378.9,143.8,369.6,115.7,374.5,115.2z"/>
	<path class="st81" d="M380.9,122c0.1-0.2-2.8-8.1-10-9.3c-8.6-1.4-18.7,5-21.8,13.6c-3.1,8.7-5.9,18.5-14.4,21
		c-8.5,2.5-10,14.9-7.4,22.8c2.6,7.8,10.7,5.8,10.7,5.8s-5-4.3-3.6-5.6c0,0,3.8,7.3,8.1,5.9c4.3-1.5,6-3.8,6-3.8s-7.4-1.1-2.5-5.2
		c3.4-2.9,5.1-5.5,9.1-10.3c3.8-4.6,1.8-17,5.2-25.9c0.4,0.4,1.1,0.7,2.1,0.8c4.5,0.5,2.5-2.8,6.8-7.8
		C376.6,119.7,380.4,122,380.9,122z"/>
	<path class="st87" d="M351.2,131.8c1.2,3.3,2,7.7,1.8,11.1c-0.6,10.9-12.1,5.2-15.4,5.4c-2,0.1-3.7,1.9-2.9,4.4
		c0.6,2,1.9,2.6,2.6,3.5c1,1.3,0.5,2.7-0.7,3.3c-2.4,1.2-5.3-1.5-6.3,1.7c-0.7,2.2,0,4.9,1.8,6.7c-2-1.5-3.1-4.3-2.5-6.9
		c0.6-2.7,2.4-2.5,5-2.4c1.6,0.1,2.1-0.7,2-1.1c-0.1-1-2.3-1.3-3.2-4.4c-0.8-2.2,0.1-4.6,2.1-5.7c5.3-3.1,17.2,8,16.7-8.3
		C352,136.7,351.7,134.2,351.2,131.8z"/>
	<path class="st10" d="M361.1,134.1c0,0,0.2-4.2-2-3.8c-2.2,0.4-3.7,3.2-2.7,6C357.5,139,361.4,137.8,361.1,134.1z"/>
	<path class="st9" d="M360.2,134.7c0,0,0.3-2.6-0.7-2.8c-1-0.2-2,1.8-1.8,3.1C358,136.4,360.1,136.3,360.2,134.7z"/>
</g>
</svg>
